<svg width="11" height="17" viewBox="0 0 11 17" fill="none" xmlns="http://www.w3.org/2000/svg">
<path d="M3.53119 6.10566C3.32191 6.10566 3.14648 6.03487 3.00491 5.8933C2.86333 5.75172 2.79254 5.57629 2.79254 5.36701C2.79254 5.15773 2.86333 4.9823 3.00491 4.84072C3.14648 4.69915 3.32191 4.62836 3.53119 4.62836H7.96308C8.17237 4.62836 8.34779 4.69915 8.48937 4.84072C8.63094 4.9823 8.70173 5.15773 8.70173 5.36701C8.70173 5.57629 8.63094 5.75172 8.48937 5.8933C8.34779 6.03487 8.17237 6.10566 7.96308 6.10566H3.53119ZM2.0539 16.4467C1.64764 16.4467 1.29986 16.3021 1.01055 16.0128C0.721251 15.7235 0.576599 15.3757 0.576599 14.9694V1.67377C0.576599 1.26751 0.721251 0.919732 1.01055 0.630428C1.29986 0.341124 1.64764 0.196472 2.0539 0.196472H9.44038C9.84663 0.196472 10.1944 0.341124 10.4837 0.630428C10.773 0.919732 10.9177 1.26751 10.9177 1.67377V14.9694C10.9177 15.3757 10.773 15.7235 10.4837 16.0128C10.1944 16.3021 9.84663 16.4467 9.44038 16.4467H2.0539ZM2.0539 12.7535H9.44038V3.88971H2.0539V12.7535Z" fill="#3366FF"/>
</svg>
