<svg width="16" height="13" viewBox="0 0 16 13" fill="none" xmlns="http://www.w3.org/2000/svg">
<path d="M1.46863 12.6593C1.16086 12.6593 0.899254 12.5516 0.683815 12.3361C0.468376 12.1207 0.360657 11.8591 0.360657 11.5513C0.360657 11.2436 0.468376 10.982 0.683815 10.7665C0.899254 10.5511 1.16086 10.4434 1.46863 10.4434C1.7764 10.4434 2.038 10.5511 2.25344 10.7665C2.46888 10.982 2.5766 11.2436 2.5766 11.5513C2.5766 11.8591 2.46888 12.1207 2.25344 12.3361C2.038 12.5516 1.7764 12.6593 1.46863 12.6593ZM4.79255 12.6593C4.59557 12.6593 4.42322 12.6008 4.27549 12.4839C4.12776 12.3669 4.03543 12.21 3.9985 12.013C3.86308 11.2374 3.5153 10.5788 2.95516 10.0371C2.39502 9.49542 1.72716 9.15687 0.951575 9.02146C0.766913 8.99683 0.622261 8.90758 0.517619 8.7537C0.412978 8.59981 0.360657 8.42438 0.360657 8.22741C0.360657 8.01813 0.425288 7.8427 0.554552 7.70112C0.683815 7.55955 0.840778 7.50107 1.02544 7.52569C2.18266 7.67342 3.17368 8.1597 3.9985 8.98452C4.82332 9.80935 5.31575 10.8004 5.4758 11.9576C5.50042 12.1546 5.44502 12.3208 5.3096 12.4562C5.17418 12.5916 5.00183 12.6593 4.79255 12.6593ZM7.74714 12.6593C7.53785 12.6593 7.36243 12.5916 7.22085 12.4562C7.07928 12.3208 6.99618 12.1484 6.97156 11.9391C6.79921 10.3633 6.15597 9.02761 5.04184 7.93195C3.92771 6.83629 2.58276 6.20844 1.00697 6.0484C0.810001 6.02378 0.653038 5.9376 0.536086 5.78987C0.419133 5.64214 0.360657 5.46979 0.360657 5.27282C0.360657 5.06353 0.425288 4.88503 0.554552 4.7373C0.683815 4.58957 0.840778 4.52801 1.02544 4.55263C3.00748 4.71267 4.69406 5.48518 6.08518 6.87014C7.4763 8.25511 8.26419 9.93246 8.44885 11.9022C8.47348 12.1115 8.415 12.29 8.27343 12.4377C8.13185 12.5854 7.95642 12.6593 7.74714 12.6593ZM9.96308 12.6593C9.96308 11.3174 9.71379 10.0648 9.2152 8.90143C8.71661 7.73805 8.03337 6.72241 7.16545 5.8545C6.29754 4.98659 5.27882 4.30334 4.1093 3.80475C2.93977 3.30617 1.69022 3.05687 0.360657 3.05687V2.31822C0.360657 1.91197 0.505309 1.56419 0.794613 1.27488C1.08392 0.985579 1.4317 0.840927 1.83795 0.840927H13.6563C14.0626 0.840927 14.4104 0.985579 14.6997 1.27488C14.989 1.56419 15.1336 1.91197 15.1336 2.31822V11.182C15.1336 11.5883 14.989 11.936 14.6997 12.2253C14.4104 12.5146 14.0626 12.6593 13.6563 12.6593H9.96308Z" fill="#3366FF"/>
</svg>
