<svg width="988" height="252" viewBox="0 0 988 252" fill="none" xmlns="http://www.w3.org/2000/svg">
<path d="M14.4411 4.63375V9.35171H13.8698V5.23271H13.8421L12.6903 5.99754V5.41701L13.8698 4.63375H14.4411ZM15.9506 9.38857C15.837 9.38857 15.7394 9.34787 15.658 9.26647C15.5766 9.18508 15.5359 9.08755 15.5359 8.97391C15.5359 8.86026 15.5766 8.76273 15.658 8.68134C15.7394 8.59994 15.837 8.55924 15.9506 8.55924C16.0642 8.55924 16.1618 8.59994 16.2432 8.68134C16.3246 8.76273 16.3653 8.86026 16.3653 8.97391C16.3653 9.04916 16.3461 9.11827 16.3077 9.18124C16.2708 9.24421 16.2209 9.29489 16.1579 9.33328C16.0965 9.37014 16.0274 9.38857 15.9506 9.38857ZM18.7318 9.41621C18.3847 9.41621 18.089 9.32176 17.8448 9.13286C17.6006 8.94242 17.4141 8.66675 17.285 8.30584C17.156 7.94339 17.0915 7.50569 17.0915 6.99273C17.0915 6.48285 17.156 6.04745 17.285 5.68654C17.4156 5.32409 17.603 5.04765 17.8471 4.85721C18.0929 4.66524 18.3877 4.56925 18.7318 4.56925C19.0758 4.56925 19.3699 4.66524 19.6141 4.85721C19.8598 5.04765 20.0472 5.32409 20.1762 5.68654C20.3067 6.04745 20.372 6.48285 20.372 6.99273C20.372 7.50569 20.3075 7.94339 20.1785 8.30584C20.0495 8.66675 19.8629 8.94242 19.6187 9.13286C19.3745 9.32176 19.0788 9.41621 18.7318 9.41621ZM18.7318 8.9094C19.0758 8.9094 19.343 8.74354 19.5334 8.41181C19.7239 8.08007 19.8191 7.60705 19.8191 6.99273C19.8191 6.58421 19.7753 6.23635 19.6878 5.94916C19.6018 5.66197 19.4774 5.44312 19.3146 5.29261C19.1533 5.1421 18.9591 5.06685 18.7318 5.06685C18.3908 5.06685 18.1244 5.23502 17.9324 5.57136C17.7404 5.90616 17.6444 6.37995 17.6444 6.99273C17.6444 7.40125 17.6874 7.74834 17.7734 8.034C17.8594 8.31966 17.9831 8.53697 18.1443 8.68594C18.3071 8.83492 18.5029 8.9094 18.7318 8.9094Z" fill="#6E7880"/>
<rect x="31.1387" y="7.02735" width="956.861" height="0.648719" fill="#DDE3E7"/>
<path d="M13.0543 33.9715C12.7072 33.9715 12.4115 33.8771 12.1673 33.6882C11.9231 33.4977 11.7365 33.2221 11.6075 32.8611C11.4785 32.4987 11.414 32.061 11.414 31.548C11.414 31.0382 11.4785 30.6028 11.6075 30.2419C11.7381 29.8794 11.9254 29.603 12.1696 29.4125C12.4154 29.2205 12.7102 29.1246 13.0543 29.1246C13.3983 29.1246 13.6924 29.2205 13.9366 29.4125C14.1823 29.603 14.3697 29.8794 14.4987 30.2419C14.6292 30.6028 14.6945 31.0382 14.6945 31.548C14.6945 32.061 14.63 32.4987 14.501 32.8611C14.372 33.2221 14.1854 33.4977 13.9412 33.6882C13.697 33.8771 13.4013 33.9715 13.0543 33.9715ZM13.0543 33.4647C13.3983 33.4647 13.6655 33.2988 13.8559 32.9671C14.0464 32.6354 14.1416 32.1624 14.1416 31.548C14.1416 31.1395 14.0978 30.7917 14.0103 30.5045C13.9243 30.2173 13.7999 29.9984 13.6371 29.8479C13.4758 29.6974 13.2816 29.6222 13.0543 29.6222C12.7133 29.6222 12.4468 29.7903 12.2549 30.1267C12.0629 30.4615 11.9669 30.9353 11.9669 31.548C11.9669 31.9566 12.0099 32.3037 12.0959 32.5893C12.1819 32.875 12.3056 33.0923 12.4668 33.2413C12.6296 33.3902 12.8254 33.4647 13.0543 33.4647ZM15.8366 33.9439C15.7229 33.9439 15.6254 33.9032 15.544 33.8218C15.4626 33.7404 15.4219 33.6429 15.4219 33.5292C15.4219 33.4156 15.4626 33.318 15.544 33.2366C15.6254 33.1553 15.7229 33.1146 15.8366 33.1146C15.9502 33.1146 16.0477 33.1553 16.1291 33.2366C16.2105 33.318 16.2512 33.4156 16.2512 33.5292C16.2512 33.6045 16.232 33.6736 16.1936 33.7365C16.1568 33.7995 16.1069 33.8502 16.0439 33.8886C15.9825 33.9255 15.9134 33.9439 15.8366 33.9439ZM18.7012 29.1246C18.8947 29.1261 19.0883 29.163 19.2818 29.2351C19.4753 29.3073 19.6519 29.4271 19.8116 29.5945C19.9713 29.7604 20.0996 29.9869 20.1963 30.2741C20.2931 30.5613 20.3415 30.9214 20.3415 31.3545C20.3415 31.7738 20.3015 32.1462 20.2217 32.4718C20.1433 32.7959 20.0297 33.0692 19.8807 33.2919C19.7333 33.5146 19.5536 33.6836 19.3417 33.7987C19.1313 33.9139 18.8932 33.9715 18.6275 33.9715C18.3634 33.9715 18.1276 33.9193 17.9203 33.8149C17.7145 33.7089 17.5456 33.5622 17.4135 33.3749C17.2829 33.186 17.1992 32.9671 17.1624 32.7183H17.7245C17.7752 32.9349 17.8757 33.1138 18.0263 33.2551C18.1783 33.3948 18.3787 33.4647 18.6275 33.4647C18.9915 33.4647 19.2787 33.3058 19.4891 32.9879C19.701 32.6699 19.807 32.2207 19.807 31.6402H19.7701C19.6841 31.7692 19.582 31.8805 19.4638 31.9742C19.3455 32.0679 19.2142 32.1401 19.0698 32.1908C18.9255 32.2415 18.7719 32.2668 18.6091 32.2668C18.3388 32.2668 18.0908 32.2 17.865 32.0664C17.6408 31.9312 17.4611 31.7462 17.3259 31.5112C17.1923 31.2747 17.1255 31.0044 17.1255 30.7003C17.1255 30.4116 17.19 30.1474 17.319 29.9078C17.4496 29.6667 17.6323 29.4747 17.8673 29.3319C18.1038 29.1891 18.3818 29.12 18.7012 29.1246ZM18.7012 29.6314C18.5077 29.6314 18.3334 29.6798 18.1783 29.7765C18.0247 29.8717 17.9026 30.0007 17.812 30.1635C17.7229 30.3248 17.6784 30.5037 17.6784 30.7003C17.6784 30.8969 17.7214 31.0758 17.8074 31.237C17.8949 31.3968 18.014 31.5242 18.1645 31.6195C18.3165 31.7131 18.4893 31.76 18.6828 31.76C18.8287 31.76 18.9646 31.7316 19.0906 31.6747C19.2165 31.6164 19.3263 31.5373 19.42 31.4375C19.5152 31.3361 19.5897 31.2217 19.6434 31.0942C19.6972 30.9652 19.7241 30.8308 19.7241 30.6911C19.7241 30.5068 19.6795 30.334 19.5905 30.1727C19.5029 30.0115 19.3816 29.8809 19.2265 29.7811C19.0729 29.6813 18.8978 29.6314 18.7012 29.6314Z" fill="#6E7880"/>
<rect x="31.1387" y="31.5827" width="956.861" height="0.648719" fill="#DDE3E7"/>
<path d="M13.2063 58.5268C12.8592 58.5268 12.5636 58.4324 12.3194 58.2435C12.0752 58.053 11.8886 57.7774 11.7596 57.4165C11.6306 57.054 11.5661 56.6163 11.5661 56.1034C11.5661 55.5935 11.6306 55.1581 11.7596 54.7972C11.8901 54.4347 12.0775 54.1583 12.3217 53.9678C12.5674 53.7759 12.8623 53.6799 13.2063 53.6799C13.5503 53.6799 13.8444 53.7759 14.0886 53.9678C14.3343 54.1583 14.5217 54.4347 14.6507 54.7972C14.7813 55.1581 14.8465 55.5935 14.8465 56.1034C14.8465 56.6163 14.782 57.054 14.653 57.4165C14.524 57.7774 14.3374 58.053 14.0932 58.2435C13.849 58.4324 13.5534 58.5268 13.2063 58.5268ZM13.2063 58.02C13.5503 58.02 13.8175 57.8542 14.008 57.5224C14.1984 57.1907 14.2936 56.7177 14.2936 56.1034C14.2936 55.6948 14.2499 55.347 14.1623 55.0598C14.0763 54.7726 13.9519 54.5537 13.7891 54.4032C13.6279 54.2527 13.4336 54.1775 13.2063 54.1775C12.8654 54.1775 12.5989 54.3456 12.4069 54.682C12.2149 55.0168 12.119 55.4906 12.119 56.1034C12.119 56.5119 12.162 56.859 12.248 57.1446C12.334 57.4303 12.4576 57.6476 12.6189 57.7966C12.7817 57.9455 12.9775 58.02 13.2063 58.02ZM15.9886 58.4992C15.875 58.4992 15.7774 58.4585 15.696 58.3771C15.6146 58.2957 15.5739 58.1982 15.5739 58.0845C15.5739 57.9709 15.6146 57.8734 15.696 57.792C15.7774 57.7106 15.875 57.6699 15.9886 57.6699C16.1023 57.6699 16.1998 57.7106 16.2812 57.792C16.3626 57.8734 16.4033 57.9709 16.4033 58.0845C16.4033 58.1598 16.3841 58.2289 16.3457 58.2919C16.3088 58.3548 16.2589 58.4055 16.1959 58.4439C16.1345 58.4808 16.0654 58.4992 15.9886 58.4992ZM18.7611 58.5268C18.4448 58.5268 18.1652 58.4708 17.9226 58.3587C17.6815 58.245 17.4933 58.0891 17.3582 57.891C17.223 57.6914 17.1562 57.4641 17.1578 57.2091C17.1562 57.0095 17.1954 56.8252 17.2753 56.6562C17.3551 56.4858 17.4642 56.3437 17.6024 56.2301C17.7421 56.1149 17.898 56.0419 18.07 56.0112V55.9836C17.8443 55.9252 17.6646 55.7985 17.531 55.6035C17.3974 55.4069 17.3313 55.1834 17.3328 54.9331C17.3313 54.6935 17.392 54.4793 17.5148 54.2904C17.6377 54.1014 17.8066 53.9525 18.0217 53.8434C18.2382 53.7344 18.4847 53.6799 18.7611 53.6799C19.0345 53.6799 19.2787 53.7344 19.4937 53.8434C19.7087 53.9525 19.8777 54.1014 20.0005 54.2904C20.1249 54.4793 20.1879 54.6935 20.1894 54.9331C20.1879 55.1834 20.1195 55.4069 19.9844 55.6035C19.8508 55.7985 19.6734 55.9252 19.4522 55.9836V56.0112C19.6227 56.0419 19.7763 56.1149 19.913 56.2301C20.0497 56.3437 20.1587 56.4858 20.2401 56.6562C20.3215 56.8252 20.363 57.0095 20.3645 57.2091C20.363 57.4641 20.2939 57.6914 20.1572 57.891C20.022 58.0891 19.8339 58.245 19.5928 58.3587C19.3532 58.4708 19.076 58.5268 18.7611 58.5268ZM18.7611 58.02C18.9746 58.02 19.1589 57.9855 19.314 57.9164C19.4691 57.8472 19.5889 57.7497 19.6734 57.6238C19.7579 57.4979 19.8009 57.3504 19.8024 57.1815C19.8009 57.0033 19.7548 56.8459 19.6642 56.7092C19.5736 56.5725 19.4499 56.465 19.2933 56.3867C19.1382 56.3084 18.9608 56.2692 18.7611 56.2692C18.5599 56.2692 18.3803 56.3084 18.2221 56.3867C18.0654 56.465 17.9418 56.5725 17.8512 56.7092C17.7621 56.8459 17.7183 57.0033 17.7199 57.1815C17.7183 57.3504 17.759 57.4979 17.842 57.6238C17.9264 57.7497 18.047 57.8472 18.2036 57.9164C18.3603 57.9855 18.5461 58.02 18.7611 58.02ZM18.7611 55.7808C18.9301 55.7808 19.0798 55.7471 19.2104 55.6795C19.3424 55.6119 19.4461 55.5175 19.5214 55.3961C19.5966 55.2748 19.635 55.1327 19.6365 54.9699C19.635 54.8102 19.5974 54.6712 19.5237 54.553C19.4499 54.4332 19.3478 54.341 19.2173 54.2765C19.0867 54.2105 18.9347 54.1775 18.7611 54.1775C18.5845 54.1775 18.4302 54.2105 18.2981 54.2765C18.166 54.341 18.0639 54.4332 17.9917 54.553C17.9195 54.6712 17.8842 54.8102 17.8857 54.9699C17.8842 55.1327 17.9203 55.2748 17.994 55.3961C18.0693 55.5175 18.1729 55.6119 18.305 55.6795C18.4371 55.7471 18.5891 55.7808 18.7611 55.7808Z" fill="#6E7880"/>
<rect x="31.1387" y="56.138" width="956.861" height="0.648719" fill="#DDE3E7"/>
<path d="M13.447 83.0822C13.0999 83.0822 12.8043 82.9877 12.5601 82.7988C12.3159 82.6084 12.1293 82.3327 12.0003 81.9718C11.8713 81.6093 11.8068 81.1716 11.8068 80.6587C11.8068 80.1488 11.8713 79.7134 12.0003 79.3525C12.1309 78.99 12.3182 78.7136 12.5624 78.5231C12.8081 78.3312 13.103 78.2352 13.447 78.2352C13.7911 78.2352 14.0852 78.3312 14.3293 78.5231C14.5751 78.7136 14.7624 78.99 14.8914 79.3525C15.022 79.7134 15.0873 80.1488 15.0873 80.6587C15.0873 81.1716 15.0228 81.6093 14.8937 81.9718C14.7647 82.3327 14.5781 82.6084 14.334 82.7988C14.0898 82.9877 13.7941 83.0822 13.447 83.0822ZM13.447 82.5753C13.7911 82.5753 14.0583 82.4095 14.2487 82.0777C14.4392 81.746 14.5344 81.273 14.5344 80.6587C14.5344 80.2501 14.4906 79.9023 14.4031 79.6151C14.3171 79.3279 14.1927 79.1091 14.0299 78.9585C13.8686 78.808 13.6743 78.7328 13.447 78.7328C13.1061 78.7328 12.8396 78.901 12.6477 79.2373C12.4557 79.5721 12.3597 80.0459 12.3597 80.6587C12.3597 81.0672 12.4027 81.4143 12.4887 81.6999C12.5747 81.9856 12.6983 82.2029 12.8596 82.3519C13.0224 82.5009 13.2182 82.5753 13.447 82.5753ZM16.2293 83.0545C16.1157 83.0545 16.0182 83.0138 15.9368 82.9324C15.8554 82.851 15.8147 82.7535 15.8147 82.6398C15.8147 82.5262 15.8554 82.4287 15.9368 82.3473C16.0182 82.2659 16.1157 82.2252 16.2293 82.2252C16.343 82.2252 16.4405 82.2659 16.5219 82.3473C16.6033 82.4287 16.644 82.5262 16.644 82.6398C16.644 82.7151 16.6248 82.7842 16.5864 82.8472C16.5496 82.9101 16.4996 82.9608 16.4367 82.9992C16.3752 83.0361 16.3061 83.0545 16.2293 83.0545ZM17.6888 83.0176L19.7989 78.8434V78.8065H17.3662V78.2997H20.3887V78.8341L18.2877 83.0176H17.6888Z" fill="#6E7880"/>
<rect x="31.1387" y="84.3689" width="956.861" height="0.648719" fill="#C7CFD5"/>
<path d="M13.1746 107.637C12.8275 107.637 12.5319 107.543 12.2877 107.354C12.0435 107.164 11.8569 106.888 11.7279 106.527C11.5989 106.165 11.5344 105.727 11.5344 105.214C11.5344 104.704 11.5989 104.269 11.7279 103.908C11.8584 103.545 12.0458 103.269 12.29 103.078C12.5357 102.886 12.8306 102.79 13.1746 102.79C13.5186 102.79 13.8127 102.886 14.0569 103.078C14.3027 103.269 14.49 103.545 14.619 103.908C14.7496 104.269 14.8148 104.704 14.8148 105.214C14.8148 105.727 14.7503 106.165 14.6213 106.527C14.4923 106.888 14.3057 107.164 14.0615 107.354C13.8174 107.543 13.5217 107.637 13.1746 107.637ZM13.1746 107.131C13.5186 107.131 13.7859 106.965 13.9763 106.633C14.1667 106.301 14.262 105.828 14.262 105.214C14.262 104.805 14.2182 104.458 14.1307 104.17C14.0446 103.883 13.9202 103.664 13.7575 103.514C13.5962 103.363 13.4019 103.288 13.1746 103.288C12.8337 103.288 12.5672 103.456 12.3752 103.793C12.1833 104.127 12.0873 104.601 12.0873 105.214C12.0873 105.623 12.1303 105.97 12.2163 106.255C12.3023 106.541 12.4259 106.758 12.5872 106.907C12.75 107.056 12.9458 107.131 13.1746 107.131ZM15.9569 107.61C15.8433 107.61 15.7458 107.569 15.6644 107.488C15.583 107.406 15.5423 107.309 15.5423 107.195C15.5423 107.082 15.583 106.984 15.6644 106.903C15.7458 106.821 15.8433 106.78 15.9569 106.78C16.0706 106.78 16.1681 106.821 16.2495 106.903C16.3309 106.984 16.3716 107.082 16.3716 107.195C16.3716 107.27 16.3524 107.34 16.314 107.402C16.2771 107.465 16.2272 107.516 16.1643 107.555C16.1028 107.591 16.0337 107.61 15.9569 107.61ZM18.7657 107.637C18.5722 107.634 18.3787 107.598 18.1852 107.527C17.9917 107.456 17.8151 107.337 17.6554 107.17C17.4956 107.001 17.3674 106.773 17.2706 106.486C17.1739 106.197 17.1255 105.834 17.1255 105.398C17.1255 104.981 17.1647 104.61 17.243 104.288C17.3213 103.964 17.435 103.691 17.5839 103.47C17.7329 103.247 17.9126 103.078 18.123 102.963C18.335 102.848 18.5738 102.79 18.8395 102.79C19.1036 102.79 19.3386 102.843 19.5444 102.949C19.7517 103.054 19.9207 103.2 20.0512 103.387C20.1817 103.575 20.2662 103.79 20.3046 104.034H19.7425C19.6903 103.823 19.5889 103.647 19.4384 103.507C19.2879 103.367 19.0883 103.297 18.8395 103.297C18.4739 103.297 18.186 103.456 17.9756 103.774C17.7667 104.092 17.6615 104.538 17.66 105.113H17.6968C17.7828 104.982 17.885 104.871 18.0032 104.779C18.123 104.685 18.2551 104.613 18.3995 104.562C18.5438 104.511 18.6966 104.486 18.8579 104.486C19.1282 104.486 19.3755 104.554 19.5997 104.689C19.8239 104.822 20.0036 105.007 20.1387 105.244C20.2739 105.479 20.3415 105.748 20.3415 106.053C20.3415 106.344 20.2762 106.612 20.1457 106.854C20.0151 107.095 19.8316 107.287 19.5951 107.43C19.3601 107.571 19.0837 107.641 18.7657 107.637ZM18.7657 107.131C18.9593 107.131 19.1328 107.082 19.2864 106.986C19.4415 106.889 19.5636 106.759 19.6527 106.596C19.7433 106.433 19.7886 106.252 19.7886 106.053C19.7886 105.857 19.7448 105.68 19.6573 105.52C19.5713 105.359 19.4522 105.231 19.3002 105.136C19.1497 105.04 18.9777 104.993 18.7842 104.993C18.6383 104.993 18.5024 105.022 18.3764 105.08C18.2505 105.137 18.1399 105.216 18.0447 105.315C17.951 105.415 17.8773 105.53 17.8235 105.659C17.7698 105.786 17.7429 105.92 17.7429 106.062C17.7429 106.249 17.7867 106.424 17.8742 106.587C17.9633 106.75 18.0846 106.881 18.2382 106.981C18.3933 107.081 18.5692 107.131 18.7657 107.131Z" fill="#6E7880"/>
<rect x="31.1387" y="108.924" width="956.861" height="0.648719" fill="#C7CFD5"/>
<path d="M13.2063 132.193C12.8592 132.193 12.5636 132.098 12.3194 131.909C12.0752 131.719 11.8886 131.443 11.7596 131.082C11.6306 130.72 11.5661 130.282 11.5661 129.769C11.5661 129.259 11.6306 128.824 11.7596 128.463C11.8901 128.101 12.0775 127.824 12.3217 127.634C12.5674 127.442 12.8623 127.346 13.2063 127.346C13.5503 127.346 13.8444 127.442 14.0886 127.634C14.3343 127.824 14.5217 128.101 14.6507 128.463C14.7813 128.824 14.8465 129.259 14.8465 129.769C14.8465 130.282 14.782 130.72 14.653 131.082C14.524 131.443 14.3374 131.719 14.0932 131.909C13.849 132.098 13.5534 132.193 13.2063 132.193ZM13.2063 131.686C13.5503 131.686 13.8175 131.52 14.008 131.188C14.1984 130.857 14.2936 130.384 14.2936 129.769C14.2936 129.361 14.2499 129.013 14.1623 128.726C14.0763 128.439 13.9519 128.22 13.7891 128.069C13.6279 127.919 13.4336 127.843 13.2063 127.843C12.8654 127.843 12.5989 128.012 12.4069 128.348C12.2149 128.683 12.119 129.157 12.119 129.769C12.119 130.178 12.162 130.525 12.248 130.811C12.334 131.096 12.4576 131.314 12.6189 131.463C12.7817 131.611 12.9775 131.686 13.2063 131.686ZM15.9886 132.165C15.875 132.165 15.7774 132.124 15.696 132.043C15.6146 131.962 15.5739 131.864 15.5739 131.75C15.5739 131.637 15.6146 131.539 15.696 131.458C15.7774 131.377 15.875 131.336 15.9886 131.336C16.1023 131.336 16.1998 131.377 16.2812 131.458C16.3626 131.539 16.4033 131.637 16.4033 131.75C16.4033 131.826 16.3841 131.895 16.3457 131.958C16.3088 132.021 16.2589 132.071 16.1959 132.11C16.1345 132.147 16.0654 132.165 15.9886 132.165ZM18.775 132.193C18.5047 132.193 18.2612 132.139 18.0447 132.032C17.8281 131.924 17.6546 131.777 17.5241 131.589C17.3935 131.402 17.3221 131.188 17.3098 130.949H17.8627C17.8842 131.162 17.981 131.339 18.153 131.479C18.3265 131.617 18.5338 131.686 18.775 131.686C18.9685 131.686 19.1405 131.641 19.291 131.55C19.443 131.459 19.562 131.335 19.6481 131.177C19.7356 131.017 19.7794 130.837 19.7794 130.635C19.7794 130.43 19.7341 130.246 19.6434 130.085C19.5544 129.922 19.4315 129.794 19.2749 129.7C19.1182 129.607 18.9393 129.559 18.7381 129.557C18.5937 129.556 18.4455 129.578 18.2935 129.624C18.1414 129.669 18.0163 129.726 17.918 129.797L17.3835 129.732L17.6692 127.41H20.1203V127.917H18.1484L17.9825 129.309H18.0101C18.1069 129.232 18.2282 129.168 18.3741 129.117C18.52 129.067 18.6721 129.041 18.8302 129.041C19.119 129.041 19.3762 129.11 19.602 129.249C19.8293 129.385 20.0074 129.573 20.1364 129.811C20.267 130.049 20.3322 130.321 20.3322 130.626C20.3322 130.927 20.2647 131.196 20.1295 131.433C19.9959 131.668 19.8116 131.853 19.5766 131.99C19.3417 132.125 19.0744 132.193 18.775 132.193Z" fill="#6E7880"/>
<rect x="31.1387" y="133.48" width="956.861" height="0.648719" fill="#C7CFD5"/>
<path d="M12.8959 156.748C12.5488 156.748 12.2531 156.654 12.009 156.465C11.7648 156.274 11.5782 155.999 11.4492 155.638C11.3202 155.275 11.2556 154.838 11.2556 154.325C11.2556 153.815 11.3202 153.379 11.4492 153.018C11.5797 152.656 11.7671 152.38 12.0113 152.189C12.257 151.997 12.5519 151.901 12.8959 151.901C13.2399 151.901 13.534 151.997 13.7782 152.189C14.0239 152.38 14.2113 152.656 14.3403 153.018C14.4708 153.379 14.5361 153.815 14.5361 154.325C14.5361 154.838 14.4716 155.275 14.3426 155.638C14.2136 155.999 14.027 156.274 13.7828 156.465C13.5386 156.654 13.243 156.748 12.8959 156.748ZM12.8959 156.241C13.2399 156.241 13.5071 156.075 13.6976 155.744C13.888 155.412 13.9832 154.939 13.9832 154.325C13.9832 153.916 13.9394 153.568 13.8519 153.281C13.7659 152.994 13.6415 152.775 13.4787 152.624C13.3175 152.474 13.1232 152.399 12.8959 152.399C12.5549 152.399 12.2885 152.567 12.0965 152.903C11.9045 153.238 11.8085 153.712 11.8085 154.325C11.8085 154.733 11.8515 155.08 11.9375 155.366C12.0235 155.652 12.1472 155.869 12.3084 156.018C12.4712 156.167 12.667 156.241 12.8959 156.241ZM15.6782 156.72C15.5645 156.72 15.467 156.68 15.3856 156.598C15.3042 156.517 15.2635 156.419 15.2635 156.306C15.2635 156.192 15.3042 156.095 15.3856 156.013C15.467 155.932 15.5645 155.891 15.6782 155.891C15.7918 155.891 15.8894 155.932 15.9708 156.013C16.0522 156.095 16.0929 156.192 16.0929 156.306C16.0929 156.381 16.0737 156.45 16.0353 156.513C15.9984 156.576 15.9485 156.627 15.8855 156.665C15.8241 156.702 15.755 156.72 15.6782 156.72ZM16.9746 155.716V155.246L19.0479 151.966H19.3889V152.694H19.1585L17.592 155.172V155.209H20.3841V155.716H16.9746ZM19.1954 156.684V155.573V155.354V151.966H19.739V156.684H19.1954Z" fill="#6E7880"/>
<rect x="31.1387" y="158.035" width="956.861" height="0.648719" fill="#C7CFD5"/>
<path d="M13.1049 181.303C12.7578 181.303 12.4622 181.209 12.218 181.02C11.9738 180.83 11.7872 180.554 11.6582 180.193C11.5292 179.831 11.4647 179.393 11.4647 178.88C11.4647 178.37 11.5292 177.935 11.6582 177.574C11.7888 177.211 11.9761 176.935 12.2203 176.744C12.466 176.552 12.7609 176.456 13.1049 176.456C13.449 176.456 13.7431 176.552 13.9872 176.744C14.233 176.935 14.4203 177.211 14.5493 177.574C14.6799 177.935 14.7452 178.37 14.7452 178.88C14.7452 179.393 14.6807 179.831 14.5517 180.193C14.4226 180.554 14.236 180.83 13.9919 181.02C13.7477 181.209 13.452 181.303 13.1049 181.303ZM13.1049 180.797C13.449 180.797 13.7162 180.631 13.9066 180.299C14.0971 179.967 14.1923 179.494 14.1923 178.88C14.1923 178.471 14.1485 178.124 14.061 177.836C13.975 177.549 13.8506 177.33 13.6878 177.18C13.5265 177.029 13.3322 176.954 13.1049 176.954C12.764 176.954 12.4975 177.122 12.3056 177.459C12.1136 177.793 12.0176 178.267 12.0176 178.88C12.0176 179.288 12.0606 179.636 12.1466 179.921C12.2326 180.207 12.3562 180.424 12.5175 180.573C12.6803 180.722 12.8761 180.797 13.1049 180.797ZM15.8872 181.276C15.7736 181.276 15.6761 181.235 15.5947 181.154C15.5133 181.072 15.4726 180.975 15.4726 180.861C15.4726 180.747 15.5133 180.65 15.5947 180.569C15.6761 180.487 15.7736 180.446 15.8872 180.446C16.0009 180.446 16.0984 180.487 16.1798 180.569C16.2612 180.65 16.3019 180.747 16.3019 180.861C16.3019 180.936 16.2827 181.005 16.2443 181.068C16.2075 181.131 16.1575 181.182 16.0946 181.22C16.0331 181.257 15.964 181.276 15.8872 181.276ZM18.711 181.303C18.4069 181.303 18.1359 181.251 17.8978 181.147C17.6613 181.042 17.4732 180.897 17.3334 180.711C17.1952 180.524 17.1199 180.307 17.1077 180.059H17.6882C17.7005 180.211 17.7527 180.343 17.8448 180.453C17.937 180.562 18.0575 180.647 18.2065 180.707C18.3555 180.767 18.5206 180.797 18.7018 180.797C18.9045 180.797 19.0842 180.761 19.2409 180.691C19.3975 180.62 19.5204 180.522 19.6095 180.396C19.6985 180.27 19.7431 180.124 19.7431 179.958C19.7431 179.784 19.7001 179.632 19.6141 179.5C19.5281 179.366 19.4021 179.262 19.2363 179.186C19.0704 179.111 18.8677 179.073 18.6281 179.073H18.2503V178.567H18.6281C18.8155 178.567 18.9798 178.533 19.1211 178.465C19.2639 178.398 19.3753 178.302 19.4551 178.18C19.5365 178.057 19.5772 177.912 19.5772 177.746C19.5772 177.587 19.5419 177.448 19.4712 177.33C19.4006 177.211 19.3008 177.119 19.1718 177.053C19.0443 176.987 18.8938 176.954 18.7202 176.954C18.5574 176.954 18.4039 176.984 18.2595 177.044C18.1167 177.102 18 177.187 17.9093 177.3C17.8187 177.41 17.7696 177.544 17.7619 177.7H17.209C17.2182 177.453 17.2927 177.237 17.4325 177.051C17.5722 176.863 17.755 176.718 17.9808 176.613C18.2081 176.509 18.4576 176.456 18.7295 176.456C19.0213 176.456 19.2716 176.516 19.4805 176.634C19.6893 176.751 19.8498 176.905 19.9619 177.097C20.074 177.289 20.1301 177.496 20.1301 177.719C20.1301 177.985 20.0602 178.211 19.9205 178.398C19.7822 178.586 19.5941 178.716 19.3561 178.788V178.825C19.654 178.874 19.8867 179 20.0541 179.205C20.2215 179.407 20.3052 179.659 20.3052 179.958C20.3052 180.215 20.2353 180.445 20.0955 180.649C19.9573 180.852 19.7684 181.012 19.5288 181.128C19.2893 181.245 19.0167 181.303 18.711 181.303Z" fill="#6E7880"/>
<rect x="31.1387" y="182.59" width="956.861" height="0.648719" fill="#C7CFD5"/>
<path d="M13.1303 205.859C12.7832 205.859 12.4875 205.764 12.2434 205.575C11.9992 205.385 11.8126 205.109 11.6836 204.748C11.5546 204.386 11.49 203.948 11.49 203.435C11.49 202.925 11.5546 202.49 11.6836 202.129C11.8141 201.767 12.0015 201.49 12.2457 201.3C12.4914 201.108 12.7863 201.012 13.1303 201.012C13.4743 201.012 13.7684 201.108 14.0126 201.3C14.2583 201.49 14.4457 201.767 14.5747 202.129C14.7052 202.49 14.7705 202.925 14.7705 203.435C14.7705 203.948 14.706 204.386 14.577 204.748C14.448 205.109 14.2614 205.385 14.0172 205.575C13.773 205.764 13.4774 205.859 13.1303 205.859ZM13.1303 205.352C13.4743 205.352 13.7415 205.186 13.932 204.854C14.1224 204.523 14.2176 204.05 14.2176 203.435C14.2176 203.027 14.1738 202.679 14.0863 202.392C14.0003 202.104 13.8759 201.886 13.7131 201.735C13.5519 201.585 13.3576 201.509 13.1303 201.509C12.7893 201.509 12.5229 201.678 12.3309 202.014C12.1389 202.349 12.0429 202.822 12.0429 203.435C12.0429 203.844 12.0859 204.191 12.1719 204.476C12.2579 204.762 12.3816 204.979 12.5428 205.128C12.7056 205.277 12.9014 205.352 13.1303 205.352ZM15.9126 205.831C15.7989 205.831 15.7014 205.79 15.62 205.709C15.5386 205.628 15.4979 205.53 15.4979 205.416C15.4979 205.303 15.5386 205.205 15.62 205.124C15.7014 205.042 15.7989 205.002 15.9126 205.002C16.0262 205.002 16.1238 205.042 16.2052 205.124C16.2866 205.205 16.3273 205.303 16.3273 205.416C16.3273 205.492 16.3081 205.561 16.2697 205.624C16.2328 205.687 16.1829 205.737 16.1199 205.776C16.0585 205.813 15.9894 205.831 15.9126 205.831ZM17.3196 205.794V205.38L18.8769 203.675C19.0597 203.475 19.2102 203.302 19.3284 203.154C19.4467 203.005 19.5342 202.865 19.591 202.735C19.6494 202.603 19.6786 202.465 19.6786 202.32C19.6786 202.154 19.6386 202.011 19.5588 201.889C19.4805 201.768 19.373 201.674 19.2363 201.608C19.0996 201.542 18.946 201.509 18.7755 201.509C18.5943 201.509 18.4361 201.547 18.301 201.622C18.1674 201.696 18.0637 201.8 17.99 201.933C17.9178 202.067 17.8817 202.223 17.8817 202.403H17.338C17.338 202.127 17.4018 201.884 17.5292 201.675C17.6567 201.466 17.8303 201.304 18.0499 201.187C18.271 201.07 18.5191 201.012 18.794 201.012C19.0704 201.012 19.3154 201.07 19.5288 201.187C19.7423 201.304 19.9097 201.461 20.031 201.659C20.1524 201.857 20.213 202.078 20.213 202.32C20.213 202.494 20.1815 202.663 20.1186 202.829C20.0572 202.994 19.9496 203.177 19.7961 203.38C19.644 203.581 19.4329 203.827 19.1626 204.117L18.1029 205.251V205.287H20.296V205.794H17.3196Z" fill="#6E7880"/>
<rect x="31.1387" y="207.145" width="956.861" height="0.648719" fill="#C7CFD5"/>
<path d="M14.6064 230.414C14.2593 230.414 13.9636 230.32 13.7194 230.131C13.4753 229.94 13.2887 229.665 13.1596 229.304C13.0306 228.941 12.9661 228.503 12.9661 227.991C12.9661 227.481 13.0306 227.045 13.1596 226.684C13.2902 226.322 13.4776 226.045 13.7217 225.855C13.9675 225.663 14.2623 225.567 14.6064 225.567C14.9504 225.567 15.2445 225.663 15.4887 225.855C15.7344 226.045 15.9218 226.322 16.0508 226.684C16.1813 227.045 16.2466 227.481 16.2466 227.991C16.2466 228.503 16.1821 228.941 16.0531 229.304C15.9241 229.665 15.7375 229.94 15.4933 230.131C15.2491 230.32 14.9535 230.414 14.6064 230.414ZM14.6064 229.907C14.9504 229.907 15.2176 229.741 15.408 229.41C15.5985 229.078 15.6937 228.605 15.6937 227.991C15.6937 227.582 15.6499 227.234 15.5624 226.947C15.4764 226.66 15.352 226.441 15.1892 226.29C15.0279 226.14 14.8337 226.065 14.6064 226.065C14.2654 226.065 13.999 226.233 13.807 226.569C13.615 226.904 13.519 227.378 13.519 227.991C13.519 228.399 13.562 228.746 13.648 229.032C13.734 229.317 13.8577 229.535 14.0189 229.684C14.1817 229.833 14.3775 229.907 14.6064 229.907ZM17.3887 230.386C17.275 230.386 17.1775 230.346 17.0961 230.264C17.0147 230.183 16.974 230.085 16.974 229.972C16.974 229.858 17.0147 229.761 17.0961 229.679C17.1775 229.598 17.275 229.557 17.3887 229.557C17.5023 229.557 17.5998 229.598 17.6812 229.679C17.7626 229.761 17.8033 229.858 17.8033 229.972C17.8033 230.047 17.7841 230.116 17.7457 230.179C17.7089 230.242 17.659 230.293 17.596 230.331C17.5346 230.368 17.4655 230.386 17.3887 230.386ZM19.8905 225.632V230.35H19.3192V226.231H19.2916L18.1397 226.995V226.415L19.3192 225.632H19.8905Z" fill="#6E7880"/>
<rect x="31.1387" y="231.701" width="956.861" height="0.648719" fill="#C7CFD5"/>
<path d="M987 133.87L955.133 129.698L923.267 133.87L891.4 129.698L859.533 124.096H827.667L795.8 129.698L763.933 124.096L732.067 129.698L700.2 120.878H668.333H636.467L604.6 124.096L572.733 118.018L540.867 120.878H509H477.133L445.267 118.018L413.4 120.878H381.533L349.667 126.48H317.8H285.933L254.067 120.878H222.2L190.333 118.018L158.467 114.8L126.6 109.674L94.7334 114.8L62.8667 109.674H31" stroke="#3366FF" stroke-width="1.29744" stroke-linecap="round"/>
<path d="M987 33.4501H955.133H923.267H891.4H859.533H827.667L795.8 39.0521L763.933 33.4501L732.067 27.3715H700.2H668.333H636.467H604.6H572.733H540.867H509H477.133H445.267L413.4 30.232H381.533L349.667 19.0282H317.8H285.933H254.067H222.2H190.333H158.467H126.6H94.7333H62.8666H31" stroke="#909090" stroke-width="1.29744" stroke-dasharray="1.3 2.59"/>
<path d="M37.9907 248.402C37.9907 248.7 37.9569 248.954 37.8895 249.165C37.822 249.375 37.7013 249.534 37.5275 249.643C37.3562 249.752 37.1123 249.807 36.7957 249.807C36.5959 249.807 36.4078 249.784 36.2313 249.737C36.0575 249.69 35.942 249.655 35.8849 249.632L35.9355 248.943C36.016 248.971 36.1081 249.008 36.2119 249.052C36.3183 249.093 36.4493 249.114 36.605 249.114C36.8593 249.114 37.0332 249.044 37.1266 248.904C37.2226 248.764 37.2706 248.528 37.2706 248.195V244.101H37.9907V248.402ZM40.2963 249.807C40.0368 249.807 39.8071 249.761 39.6073 249.671C39.4075 249.577 39.2505 249.444 39.1364 249.27C39.0248 249.096 38.969 248.886 38.969 248.639C38.969 248.193 39.1247 247.861 39.4361 247.643C39.7474 247.425 40.247 247.308 40.9346 247.292L41.6547 247.273V246.958C41.6547 246.711 41.5807 246.517 41.4328 246.374C41.2849 246.229 41.0553 246.156 40.7439 246.156C40.5129 246.158 40.3092 246.213 40.1328 246.319C39.9589 246.426 39.8461 246.6 39.7942 246.841H39.1597C39.1753 246.579 39.2492 246.358 39.3816 246.179C39.5139 245.998 39.6981 245.86 39.9343 245.767C40.173 245.673 40.4546 245.627 40.7789 245.627C41.1292 245.627 41.4198 245.676 41.6508 245.774C41.8843 245.873 42.0582 246.018 42.1724 246.21C42.2891 246.402 42.3475 246.639 42.3475 246.919V249.729H41.7325L41.6819 248.974C41.5262 249.288 41.3277 249.506 41.0864 249.628C40.8477 249.747 40.5843 249.807 40.2963 249.807ZM40.5142 249.289C40.6492 249.289 40.7828 249.265 40.9151 249.215C41.0501 249.166 41.1733 249.1 41.2849 249.017C41.3965 248.931 41.4847 248.836 41.5496 248.733C41.6171 248.626 41.6521 248.517 41.6547 248.406V247.717L41.0553 247.728C40.7491 247.734 40.4922 247.765 40.2846 247.822C40.0796 247.879 39.9252 247.968 39.8214 248.09C39.7202 248.212 39.6696 248.372 39.6696 248.569C39.6696 248.795 39.7474 248.971 39.9031 249.098C40.0614 249.226 40.2651 249.289 40.5142 249.289ZM43.5771 249.729V245.704H44.2738V246.288C44.3387 246.177 44.4282 246.072 44.5424 245.973C44.6592 245.874 44.7993 245.795 44.9628 245.736C45.1289 245.676 45.3196 245.646 45.535 245.646C45.7892 245.646 46.0228 245.697 46.2356 245.798C46.4509 245.899 46.6222 246.057 46.7494 246.273C46.8791 246.485 46.944 246.76 46.944 247.098V249.729H46.2239V247.168C46.2239 246.854 46.1409 246.622 45.9748 246.471C45.8113 246.318 45.5985 246.242 45.3364 246.242C45.1548 246.242 44.9848 246.271 44.8266 246.331C44.6683 246.388 44.5398 246.476 44.4412 246.596C44.3426 246.712 44.2933 246.86 44.2933 247.039V249.729H43.5771Z" fill="#9B9EAB"/>
<path d="M120.6 244.101H124.107L124.103 244.731H121.339V246.592H123.822V247.215H121.339V249.729H120.6V244.101ZM125.474 247.884C125.474 248.138 125.515 248.369 125.598 248.577C125.684 248.782 125.812 248.945 125.983 249.067C126.157 249.189 126.374 249.25 126.633 249.25C126.89 249.25 127.111 249.191 127.295 249.071C127.482 248.952 127.601 248.779 127.653 248.554H128.334C128.285 248.826 128.176 249.056 128.007 249.242C127.839 249.429 127.635 249.571 127.396 249.667C127.158 249.76 126.909 249.807 126.649 249.807C126.273 249.807 125.942 249.725 125.656 249.562C125.371 249.398 125.148 249.163 124.987 248.857C124.826 248.551 124.746 248.184 124.746 247.756C124.746 247.333 124.818 246.962 124.964 246.642C125.109 246.323 125.319 246.074 125.594 245.895C125.872 245.716 126.205 245.627 126.595 245.627C126.973 245.627 127.294 245.708 127.556 245.872C127.818 246.035 128.017 246.266 128.151 246.565C128.289 246.86 128.358 247.212 128.358 247.619V247.884H125.474ZM125.477 247.398H127.665C127.665 247.167 127.626 246.959 127.548 246.775C127.47 246.588 127.351 246.441 127.19 246.335C127.032 246.226 126.832 246.171 126.591 246.171C126.339 246.171 126.13 246.232 125.964 246.354C125.8 246.474 125.677 246.628 125.594 246.818C125.514 247.004 125.475 247.198 125.477 247.398ZM131.335 249.807C131.099 249.807 130.899 249.776 130.736 249.713C130.575 249.651 130.443 249.572 130.339 249.476C130.235 249.377 130.155 249.278 130.097 249.176C130.04 249.073 129.999 248.982 129.973 248.904L129.895 249.729H129.346V243.945H130.07V246.343C130.104 246.275 130.155 246.201 130.222 246.121C130.292 246.04 130.382 245.963 130.491 245.887C130.6 245.812 130.728 245.75 130.876 245.7C131.026 245.651 131.198 245.627 131.39 245.627C131.893 245.627 132.293 245.802 132.589 246.152C132.887 246.502 133.036 247.019 133.036 247.701C133.036 248.124 132.973 248.494 132.845 248.81C132.718 249.124 132.529 249.37 132.277 249.546C132.025 249.72 131.711 249.807 131.335 249.807ZM131.207 249.254C131.534 249.254 131.8 249.128 132.005 248.877C132.21 248.622 132.312 248.219 132.312 247.666C132.312 247.196 132.216 246.833 132.024 246.576C131.835 246.317 131.557 246.187 131.191 246.187C130.924 246.187 130.709 246.245 130.545 246.362C130.384 246.476 130.265 246.644 130.187 246.864C130.112 247.085 130.073 247.352 130.07 247.666C130.07 248.229 130.157 248.635 130.331 248.884C130.507 249.131 130.799 249.254 131.207 249.254Z" fill="#9B9EAB"/>
<path d="M205.32 249.729V244.101H206.316L208.013 248.748L209.733 244.101H210.726V249.729H209.983V245.179L208.352 249.729H207.678L206.059 245.222V249.729H205.32ZM213.157 249.807C212.898 249.807 212.668 249.761 212.468 249.671C212.268 249.577 212.111 249.444 211.997 249.27C211.886 249.096 211.83 248.886 211.83 248.639C211.83 248.193 211.986 247.861 212.297 247.643C212.608 247.425 213.108 247.308 213.796 247.292L214.516 247.273V246.958C214.516 246.711 214.442 246.517 214.294 246.374C214.146 246.229 213.916 246.156 213.605 246.156C213.374 246.158 213.17 246.213 212.994 246.319C212.82 246.426 212.707 246.6 212.655 246.841H212.021C212.036 246.579 212.11 246.358 212.243 246.179C212.375 245.998 212.559 245.86 212.795 245.767C213.034 245.673 213.316 245.627 213.64 245.627C213.99 245.627 214.281 245.676 214.512 245.774C214.745 245.873 214.919 246.018 215.033 246.21C215.15 246.402 215.208 246.639 215.208 246.919V249.729H214.593L214.543 248.974C214.387 249.288 214.189 249.506 213.947 249.628C213.709 249.747 213.445 249.807 213.157 249.807ZM213.375 249.289C213.51 249.289 213.644 249.265 213.776 249.215C213.911 249.166 214.034 249.1 214.146 249.017C214.257 248.931 214.346 248.836 214.411 248.733C214.478 248.626 214.513 248.517 214.516 248.406V247.717L213.916 247.728C213.61 247.734 213.353 247.765 213.146 247.822C212.941 247.879 212.786 247.968 212.682 248.09C212.581 248.212 212.531 248.372 212.531 248.569C212.531 248.795 212.608 248.971 212.764 249.098C212.922 249.226 213.126 249.289 213.375 249.289ZM216.438 249.729V245.704H217.123V246.479C217.191 246.287 217.285 246.129 217.407 246.004C217.529 245.877 217.668 245.782 217.824 245.72C217.982 245.658 218.146 245.627 218.314 245.627C218.374 245.627 218.432 245.63 218.489 245.638C218.546 245.646 218.591 245.659 218.622 245.677V246.374C218.583 246.356 218.532 246.344 218.47 246.339C218.41 246.331 218.36 246.327 218.318 246.327C218.157 246.317 218.007 246.327 217.867 246.358C217.726 246.387 217.603 246.437 217.497 246.51C217.39 246.583 217.306 246.679 217.244 246.798C217.184 246.915 217.154 247.058 217.154 247.226V249.729H216.438Z" fill="#9B9EAB"/>
<path d="M290.558 249.729L292.594 244.101H293.407L295.443 249.729H294.707L294.155 248.188H291.854L291.29 249.729H290.558ZM292.037 247.526H293.964L293.006 244.813L292.037 247.526ZM296.357 250.982V245.704H297.073L297.081 246.405C297.128 246.322 297.188 246.235 297.26 246.144C297.336 246.053 297.426 245.969 297.533 245.891C297.642 245.813 297.768 245.75 297.91 245.7C298.056 245.651 298.22 245.627 298.405 245.627C298.726 245.627 299.009 245.7 299.253 245.848C299.5 245.994 299.692 246.217 299.829 246.518C299.967 246.819 300.036 247.2 300.036 247.662C300.036 248.124 299.968 248.515 299.833 248.834C299.701 249.15 299.509 249.392 299.257 249.558C299.005 249.724 298.702 249.807 298.346 249.807C298.167 249.807 298.008 249.781 297.868 249.729C297.73 249.68 297.609 249.615 297.506 249.534C297.404 249.451 297.319 249.363 297.249 249.27C297.181 249.176 297.125 249.087 297.081 249.001V250.982H296.357ZM298.21 249.246C298.542 249.246 298.813 249.121 299.024 248.869C299.234 248.615 299.339 248.22 299.339 247.686C299.339 247.226 299.243 246.862 299.051 246.592C298.859 246.322 298.579 246.187 298.21 246.187C297.836 246.187 297.554 246.326 297.362 246.603C297.169 246.879 297.073 247.239 297.073 247.686C297.073 247.974 297.116 248.236 297.202 248.472C297.288 248.708 297.415 248.896 297.583 249.036C297.752 249.176 297.961 249.246 298.21 249.246ZM300.979 249.729V245.704H301.664V246.479C301.732 246.287 301.827 246.129 301.949 246.004C302.071 245.877 302.209 245.782 302.365 245.72C302.523 245.658 302.687 245.627 302.856 245.627C302.915 245.627 302.974 245.63 303.031 245.638C303.088 245.646 303.132 245.659 303.163 245.677V246.374C303.124 246.356 303.073 246.344 303.011 246.339C302.952 246.331 302.901 246.327 302.859 246.327C302.699 246.317 302.548 246.327 302.408 246.358C302.268 246.387 302.145 246.437 302.038 246.51C301.932 246.583 301.847 246.679 301.785 246.798C301.725 246.915 301.696 247.058 301.696 247.226V249.729H300.979Z" fill="#9B9EAB"/>
<path d="M375.018 249.729V244.101H376.014L377.711 248.748L379.432 244.101H380.424V249.729H379.681V245.179L378.05 249.729H377.377L375.758 245.222V249.729H375.018ZM382.856 249.807C382.596 249.807 382.367 249.761 382.167 249.671C381.967 249.577 381.81 249.444 381.696 249.27C381.584 249.096 381.528 248.886 381.528 248.639C381.528 248.193 381.684 247.861 381.995 247.643C382.307 247.425 382.806 247.308 383.494 247.292L384.214 247.273V246.958C384.214 246.711 384.14 246.517 383.992 246.374C383.844 246.229 383.615 246.156 383.303 246.156C383.072 246.158 382.869 246.213 382.692 246.319C382.518 246.426 382.405 246.6 382.354 246.841H381.719C381.735 246.579 381.809 246.358 381.941 246.179C382.073 245.998 382.258 245.86 382.494 245.767C382.732 245.673 383.014 245.627 383.338 245.627C383.689 245.627 383.979 245.676 384.21 245.774C384.444 245.873 384.618 246.018 384.732 246.21C384.849 246.402 384.907 246.639 384.907 246.919V249.729H384.292L384.241 248.974C384.086 249.288 383.887 249.506 383.646 249.628C383.407 249.747 383.144 249.807 382.856 249.807ZM383.074 249.289C383.209 249.289 383.342 249.265 383.475 249.215C383.609 249.166 383.733 249.1 383.844 249.017C383.956 248.931 384.044 248.836 384.109 248.733C384.176 248.626 384.211 248.517 384.214 248.406V247.717L383.615 247.728C383.308 247.734 383.052 247.765 382.844 247.822C382.639 247.879 382.485 247.968 382.381 248.09C382.28 248.212 382.229 248.372 382.229 248.569C382.229 248.795 382.307 248.971 382.463 249.098C382.621 249.226 382.825 249.289 383.074 249.289ZM386.404 251.013C386.168 251.013 386.006 250.997 385.918 250.963C385.83 250.929 385.785 250.912 385.785 250.912V250.445L386.194 250.453C386.345 250.458 386.469 250.448 386.568 250.422C386.666 250.396 386.746 250.361 386.805 250.317C386.865 250.273 386.91 250.223 386.941 250.169C386.975 250.114 387.002 250.062 387.023 250.013L387.163 249.632L385.591 245.704H386.319L387.506 248.81L388.685 245.704H389.39L387.693 250.033C387.589 250.287 387.472 250.485 387.342 250.628C387.215 250.771 387.072 250.871 386.914 250.928C386.759 250.985 386.589 251.013 386.404 251.013Z" fill="#9B9EAB"/>
<path d="M463.438 248.402C463.438 248.7 463.404 248.954 463.337 249.165C463.269 249.375 463.149 249.534 462.975 249.643C462.804 249.752 462.56 249.807 462.243 249.807C462.043 249.807 461.855 249.784 461.679 249.737C461.505 249.69 461.389 249.655 461.332 249.632L461.383 248.943C461.463 248.971 461.555 249.008 461.659 249.052C461.766 249.093 461.897 249.114 462.052 249.114C462.307 249.114 462.48 249.044 462.574 248.904C462.67 248.764 462.718 248.528 462.718 248.195V244.101H463.438V248.402ZM466.109 249.807C465.899 249.804 465.701 249.774 465.514 249.717C465.33 249.658 465.166 249.571 465.023 249.457C464.881 249.342 464.768 249.201 464.685 249.032C464.604 248.861 464.564 248.663 464.564 248.437V245.704H465.284V248.363C465.284 248.625 465.365 248.838 465.526 249.001C465.689 249.165 465.934 249.246 466.261 249.246C466.557 249.246 466.794 249.17 466.974 249.017C467.155 248.861 467.246 248.63 467.246 248.324V245.704H467.962V249.729H467.39L467.316 248.958C467.267 249.161 467.182 249.324 467.063 249.449C466.946 249.573 466.805 249.665 466.639 249.725C466.475 249.782 466.299 249.809 466.109 249.807ZM469.131 249.729V245.704H469.828V246.288C469.892 246.177 469.982 246.072 470.096 245.973C470.213 245.874 470.353 245.795 470.516 245.736C470.683 245.676 470.873 245.646 471.089 245.646C471.343 245.646 471.576 245.697 471.789 245.798C472.005 245.899 472.176 246.057 472.303 246.273C472.433 246.485 472.498 246.76 472.498 247.098V249.729H471.778V247.168C471.778 246.854 471.695 246.622 471.528 246.471C471.365 246.318 471.152 246.242 470.89 246.242C470.709 246.242 470.539 246.271 470.38 246.331C470.222 246.388 470.094 246.476 469.995 246.596C469.896 246.712 469.847 246.86 469.847 247.039V249.729H469.131Z" fill="#9B9EAB"/>
<path d="M549.625 248.402C549.625 248.7 549.591 248.954 549.524 249.165C549.456 249.375 549.336 249.534 549.162 249.643C548.991 249.752 548.747 249.807 548.43 249.807C548.23 249.807 548.042 249.784 547.866 249.737C547.692 249.69 547.577 249.655 547.519 249.632L547.57 248.943C547.65 248.971 547.743 249.008 547.846 249.052C547.953 249.093 548.084 249.114 548.239 249.114C548.494 249.114 548.668 249.044 548.761 248.904C548.857 248.764 548.905 248.528 548.905 248.195V244.101H549.625V248.402ZM552.297 249.807C552.086 249.804 551.888 249.774 551.701 249.717C551.517 249.658 551.353 249.571 551.211 249.457C551.068 249.342 550.955 249.201 550.872 249.032C550.792 248.861 550.751 248.663 550.751 248.437V245.704H551.471V248.363C551.471 248.625 551.552 248.838 551.713 249.001C551.876 249.165 552.121 249.246 552.448 249.246C552.744 249.246 552.982 249.17 553.161 249.017C553.342 248.861 553.433 248.63 553.433 248.324V245.704H554.149V249.729H553.577L553.503 248.958C553.454 249.161 553.37 249.324 553.25 249.449C553.133 249.573 552.992 249.665 552.826 249.725C552.663 249.782 552.486 249.809 552.297 249.807ZM556.334 249.78C556.116 249.78 555.94 249.75 555.805 249.69C555.672 249.63 555.57 249.55 555.497 249.449C555.427 249.348 555.379 249.232 555.353 249.102C555.33 248.97 555.318 248.834 555.318 248.694V243.945H556.026V248.624C556.026 248.826 556.065 248.978 556.143 249.079C556.224 249.18 556.335 249.236 556.478 249.246L556.696 249.25V249.717C556.636 249.736 556.574 249.75 556.509 249.76C556.444 249.773 556.386 249.78 556.334 249.78Z" fill="#9B9EAB"/>
<path d="M630.176 249.729L632.212 244.101H633.025L635.061 249.729H634.325L633.772 248.188H631.472L630.908 249.729H630.176ZM631.655 247.526H633.582L632.624 244.813L631.655 247.526ZM637.386 249.807C637.176 249.804 636.977 249.774 636.79 249.717C636.606 249.658 636.443 249.571 636.3 249.457C636.157 249.342 636.044 249.201 635.961 249.032C635.881 248.861 635.841 248.663 635.841 248.437V245.704H636.561V248.363C636.561 248.625 636.641 248.838 636.802 249.001C636.965 249.165 637.211 249.246 637.538 249.246C637.833 249.246 638.071 249.17 638.25 249.017C638.432 248.861 638.522 248.63 638.522 248.324V245.704H639.239V249.729H638.666L638.592 248.958C638.543 249.161 638.459 249.324 638.339 249.449C638.223 249.573 638.081 249.665 637.915 249.725C637.752 249.782 637.575 249.809 637.386 249.807ZM642.043 251.06C641.41 251.06 640.917 250.968 640.564 250.784C640.214 250.602 640.039 250.341 640.039 250.001C640.039 249.856 640.073 249.733 640.14 249.632C640.208 249.528 640.288 249.442 640.381 249.375C640.475 249.307 640.562 249.254 640.642 249.215C640.723 249.174 640.775 249.144 640.798 249.126C640.754 249.1 640.698 249.067 640.631 249.028C640.566 248.989 640.509 248.938 640.459 248.873C640.41 248.808 640.385 248.724 640.385 248.62C640.385 248.493 640.445 248.376 640.564 248.269C640.684 248.163 640.86 248.084 641.094 248.032C640.858 247.913 640.673 247.754 640.541 247.557C640.409 247.36 640.343 247.146 640.343 246.915C640.343 246.655 640.413 246.43 640.553 246.238C640.695 246.046 640.898 245.899 641.16 245.798C641.422 245.694 641.733 245.642 642.094 245.642C642.356 245.642 642.577 245.673 642.756 245.736C642.935 245.795 643.101 245.881 643.254 245.992C643.295 245.974 643.36 245.947 643.449 245.911C643.539 245.872 643.639 245.83 643.748 245.786C643.857 245.742 643.958 245.7 644.052 245.662C644.148 245.62 644.224 245.589 644.282 245.568L644.278 246.234L643.573 246.366C643.612 246.449 643.643 246.54 643.667 246.639C643.692 246.737 643.705 246.829 643.705 246.915C643.705 247.151 643.643 247.365 643.519 247.557C643.397 247.749 643.211 247.902 642.962 248.016C642.713 248.131 642.402 248.188 642.028 248.188C641.997 248.188 641.957 248.188 641.907 248.188C641.861 248.185 641.82 248.182 641.787 248.18C641.511 248.188 641.322 248.219 641.218 248.273C641.114 248.325 641.063 248.384 641.063 248.448C641.063 248.524 641.121 248.576 641.238 248.604C641.355 248.633 641.553 248.657 641.833 248.678C641.934 248.683 642.059 248.69 642.207 248.698C642.357 248.705 642.523 248.716 642.705 248.729C643.128 248.755 643.454 248.862 643.682 249.052C643.91 249.241 644.025 249.497 644.025 249.819C644.025 250.184 643.861 250.483 643.534 250.714C643.207 250.945 642.71 251.06 642.043 251.06ZM642.172 250.597C642.543 250.597 642.827 250.541 643.024 250.43C643.222 250.318 643.32 250.149 643.32 249.924C643.32 249.763 643.259 249.632 643.137 249.531C643.018 249.427 642.835 249.367 642.588 249.351L641.46 249.278C641.358 249.272 641.253 249.298 641.144 249.355C641.035 249.41 640.942 249.486 640.864 249.585C640.789 249.684 640.751 249.795 640.751 249.92C640.751 250.133 640.867 250.299 641.098 250.418C641.331 250.537 641.689 250.597 642.172 250.597ZM642.047 247.724C642.338 247.724 642.572 247.657 642.748 247.522C642.927 247.387 643.017 247.187 643.017 246.923C643.017 246.65 642.927 246.443 642.748 246.3C642.572 246.157 642.338 246.086 642.047 246.086C641.754 246.086 641.517 246.158 641.335 246.304C641.156 246.447 641.066 246.653 641.066 246.923C641.066 247.177 641.152 247.374 641.323 247.514C641.495 247.654 641.736 247.724 642.047 247.724Z" fill="#9B9EAB"/>
<path d="M717.847 249.807C717.582 249.807 717.325 249.774 717.076 249.71C716.827 249.642 716.601 249.542 716.399 249.41C716.197 249.278 716.028 249.114 715.893 248.919C715.761 248.722 715.678 248.494 715.644 248.234H716.399C716.446 248.447 716.538 248.626 716.675 248.772C716.816 248.917 716.985 249.026 717.185 249.098C717.388 249.171 717.607 249.207 717.843 249.207C718.108 249.207 718.344 249.171 718.551 249.098C718.762 249.023 718.926 248.917 719.046 248.779C719.168 248.642 719.229 248.477 719.229 248.285C719.229 248.116 719.19 247.97 719.112 247.845C719.037 247.721 718.926 247.617 718.781 247.534C718.636 247.451 718.459 247.386 718.252 247.339L717.146 247.082C716.731 246.991 716.406 246.829 716.169 246.596C715.936 246.362 715.816 246.053 715.811 245.669C715.811 245.345 715.897 245.06 716.068 244.813C716.242 244.567 716.479 244.374 716.78 244.237C717.084 244.099 717.43 244.031 717.82 244.031C718.269 244.031 718.646 244.107 718.952 244.26C719.259 244.413 719.49 244.615 719.645 244.864C719.801 245.113 719.88 245.379 719.883 245.662H719.139C719.116 245.407 719.041 245.206 718.913 245.058C718.789 244.908 718.632 244.801 718.442 244.739C718.253 244.674 718.047 244.642 717.824 244.642C717.663 244.642 717.507 244.663 717.357 244.704C717.209 244.743 717.075 244.803 716.956 244.883C716.839 244.964 716.745 245.063 716.675 245.183C716.605 245.302 716.57 245.441 716.57 245.599C716.57 245.802 716.639 245.966 716.777 246.094C716.917 246.221 717.17 246.33 717.536 246.421L718.606 246.677C718.886 246.737 719.115 246.825 719.291 246.942C719.47 247.059 719.608 247.191 719.704 247.339C719.802 247.487 719.87 247.641 719.906 247.802C719.945 247.963 719.964 248.121 719.964 248.277C719.964 248.56 719.88 248.818 719.711 249.052C719.543 249.283 719.3 249.467 718.984 249.604C718.67 249.739 718.291 249.807 717.847 249.807ZM721.547 247.884C721.547 248.138 721.589 248.369 721.672 248.577C721.757 248.782 721.886 248.945 722.057 249.067C722.231 249.189 722.448 249.25 722.707 249.25C722.964 249.25 723.185 249.191 723.369 249.071C723.556 248.952 723.675 248.779 723.727 248.554H724.408C724.359 248.826 724.25 249.056 724.081 249.242C723.912 249.429 723.709 249.571 723.47 249.667C723.231 249.76 722.982 249.807 722.723 249.807C722.346 249.807 722.016 249.725 721.73 249.562C721.445 249.398 721.222 249.163 721.061 248.857C720.9 248.551 720.819 248.184 720.819 247.756C720.819 247.333 720.892 246.962 721.037 246.642C721.183 246.323 721.393 246.074 721.668 245.895C721.946 245.716 722.279 245.627 722.668 245.627C723.047 245.627 723.368 245.708 723.63 245.872C723.892 246.035 724.09 246.266 724.225 246.565C724.363 246.86 724.431 247.212 724.431 247.619V247.884H721.547ZM721.551 247.398H723.739C723.739 247.167 723.7 246.959 723.622 246.775C723.544 246.588 723.425 246.441 723.264 246.335C723.105 246.226 722.906 246.171 722.664 246.171C722.413 246.171 722.204 246.232 722.038 246.354C721.874 246.474 721.751 246.628 721.668 246.818C721.587 247.004 721.549 247.198 721.551 247.398ZM725.42 250.982V245.704H726.136L726.144 246.405C726.191 246.322 726.25 246.235 726.323 246.144C726.398 246.053 726.489 245.969 726.595 245.891C726.704 245.813 726.83 245.75 726.973 245.7C727.118 245.651 727.283 245.627 727.467 245.627C727.789 245.627 728.072 245.7 728.316 245.848C728.562 245.994 728.754 246.217 728.892 246.518C729.029 246.819 729.098 247.2 729.098 247.662C729.098 248.124 729.031 248.515 728.896 248.834C728.763 249.15 728.571 249.392 728.32 249.558C728.068 249.724 727.764 249.807 727.409 249.807C727.23 249.807 727.07 249.781 726.93 249.729C726.793 249.68 726.672 249.615 726.568 249.534C726.467 249.451 726.381 249.363 726.311 249.27C726.244 249.176 726.188 249.087 726.144 249.001V250.982H725.42ZM727.273 249.246C727.605 249.246 727.876 249.121 728.086 248.869C728.296 248.615 728.401 248.22 728.401 247.686C728.401 247.226 728.305 246.862 728.113 246.592C727.921 246.322 727.641 246.187 727.273 246.187C726.899 246.187 726.616 246.326 726.424 246.603C726.232 246.879 726.136 247.239 726.136 247.686C726.136 247.974 726.179 248.236 726.265 248.472C726.35 248.708 726.477 248.896 726.646 249.036C726.815 249.176 727.024 249.246 727.273 249.246Z" fill="#9B9EAB"/>
<path d="M803.879 249.807C803.379 249.807 802.945 249.694 802.579 249.468C802.214 249.242 801.931 248.916 801.731 248.487C801.534 248.057 801.435 247.536 801.435 246.927C801.435 246.312 801.535 245.789 801.735 245.358C801.935 244.925 802.217 244.594 802.583 244.365C802.952 244.137 803.384 244.023 803.879 244.023C804.378 244.023 804.808 244.137 805.172 244.365C805.535 244.591 805.815 244.921 806.012 245.354C806.21 245.785 806.308 246.309 806.308 246.927C806.308 247.536 806.21 248.057 806.012 248.487C805.818 248.916 805.539 249.242 805.176 249.468C804.812 249.694 804.38 249.807 803.879 249.807ZM803.879 249.18C804.227 249.18 804.523 249.101 804.767 248.943C805.011 248.784 805.196 248.539 805.324 248.207C805.453 247.875 805.518 247.451 805.518 246.934C805.518 246.41 805.453 245.979 805.324 245.642C805.194 245.305 805.007 245.056 804.763 244.895C804.519 244.731 804.225 244.65 803.879 244.65C803.537 244.65 803.242 244.731 802.996 244.895C802.749 245.058 802.56 245.309 802.428 245.646C802.295 245.983 802.229 246.413 802.229 246.934C802.229 247.451 802.295 247.875 802.428 248.207C802.56 248.539 802.749 248.784 802.996 248.943C803.242 249.101 803.537 249.18 803.879 249.18ZM808.877 245.627C809.166 245.627 809.425 245.682 809.656 245.794C809.887 245.903 810.075 246.059 810.22 246.261C810.368 246.463 810.46 246.702 810.497 246.977H809.858C809.835 246.837 809.781 246.709 809.695 246.592C809.612 246.475 809.502 246.382 809.364 246.312C809.226 246.242 809.066 246.206 808.881 246.206C808.536 246.206 808.256 246.331 808.041 246.58C807.825 246.829 807.718 247.211 807.718 247.724C807.718 248.189 807.816 248.561 808.013 248.842C808.213 249.119 808.506 249.258 808.893 249.258C809.077 249.258 809.237 249.223 809.372 249.153C809.509 249.08 809.62 248.986 809.703 248.869C809.786 248.749 809.839 248.622 809.862 248.487H810.489C810.455 248.757 810.364 248.991 810.216 249.188C810.069 249.385 809.879 249.538 809.648 249.647C809.42 249.754 809.163 249.807 808.877 249.807C808.517 249.807 808.196 249.728 807.916 249.569C807.638 249.411 807.42 249.178 807.262 248.869C807.104 248.56 807.025 248.181 807.025 247.732C807.025 247.312 807.096 246.945 807.239 246.631C807.384 246.314 807.594 246.068 807.869 245.891C808.147 245.715 808.483 245.627 808.877 245.627ZM813.386 246.23H812.479V248.733C812.479 248.875 812.493 248.98 812.522 249.048C812.553 249.113 812.603 249.154 812.673 249.172C812.746 249.191 812.845 249.2 812.969 249.2H813.409V249.682C813.36 249.7 813.285 249.716 813.183 249.729C813.085 249.742 812.961 249.748 812.814 249.748C812.536 249.748 812.321 249.711 812.167 249.636C812.014 249.56 811.907 249.449 811.844 249.301C811.785 249.153 811.755 248.971 811.755 248.756V246.23H811.101V245.704H811.774L811.949 244.533H812.479V245.7H813.386V246.23Z" fill="#9B9EAB"/>
<path d="M889.932 244.101H890.652V249.729H890.01L886.989 245.292V249.729H886.269V244.101H886.958L889.932 248.476V244.101ZM893.537 249.807C893.166 249.807 892.841 249.728 892.563 249.569C892.286 249.409 892.07 249.174 891.917 248.865C891.764 248.556 891.688 248.179 891.688 247.732C891.688 247.312 891.759 246.943 891.902 246.627C892.045 246.31 892.253 246.065 892.528 245.891C892.806 245.715 893.142 245.627 893.537 245.627C893.908 245.627 894.229 245.708 894.502 245.872C894.777 246.033 894.99 246.27 895.14 246.584C895.291 246.898 895.366 247.281 895.366 247.732C895.366 248.142 895.296 248.503 895.156 248.814C895.018 249.126 894.813 249.37 894.541 249.546C894.271 249.72 893.936 249.807 893.537 249.807ZM893.537 249.239C893.778 249.239 893.982 249.178 894.148 249.056C894.314 248.934 894.44 248.759 894.525 248.53C894.611 248.302 894.654 248.031 894.654 247.717C894.654 247.429 894.616 247.17 894.541 246.942C894.466 246.711 894.345 246.528 894.179 246.393C894.015 246.258 893.801 246.191 893.537 246.191C893.293 246.191 893.086 246.252 892.918 246.374C892.749 246.493 892.621 246.667 892.532 246.895C892.447 247.124 892.404 247.398 892.404 247.717C892.404 248 892.443 248.256 892.521 248.487C892.599 248.718 892.72 248.901 892.887 249.036C893.053 249.171 893.269 249.239 893.537 249.239ZM899.339 245.704L897.887 249.729H897.233L895.778 245.704H896.455L897.525 248.826H897.591L898.666 245.704H899.339Z" fill="#9B9EAB"/>
<path d="M971.373 244.101C971.391 244.101 971.446 244.102 971.536 244.105C971.63 244.105 971.743 244.105 971.875 244.105C972.007 244.102 972.145 244.102 972.288 244.105C972.43 244.105 972.561 244.106 972.681 244.109C973.371 244.119 973.93 244.232 974.358 244.447C974.789 244.66 975.104 244.97 975.304 245.377C975.507 245.785 975.608 246.286 975.608 246.88C975.608 247.503 975.499 248.025 975.281 248.448C975.065 248.871 974.736 249.191 974.292 249.406C973.851 249.621 973.289 249.729 972.607 249.729H971.373V244.101ZM972.113 244.72V249.11H972.607C973.071 249.11 973.471 249.039 973.806 248.896C974.14 248.751 974.397 248.516 974.576 248.192C974.758 247.867 974.849 247.434 974.849 246.892C974.849 246.349 974.761 245.92 974.584 245.603C974.41 245.287 974.159 245.061 973.829 244.926C973.499 244.788 973.102 244.72 972.638 244.72H972.113ZM977.136 247.884C977.136 248.138 977.178 248.369 977.261 248.577C977.347 248.782 977.475 248.945 977.646 249.067C977.82 249.189 978.037 249.25 978.296 249.25C978.553 249.25 978.774 249.191 978.958 249.071C979.145 248.952 979.264 248.779 979.316 248.554H979.997C979.948 248.826 979.839 249.056 979.67 249.242C979.502 249.429 979.298 249.571 979.059 249.667C978.82 249.76 978.571 249.807 978.312 249.807C977.936 249.807 977.605 249.725 977.319 249.562C977.034 249.398 976.811 249.163 976.65 248.857C976.489 248.551 976.409 248.184 976.409 247.756C976.409 247.333 976.481 246.962 976.626 246.642C976.772 246.323 976.982 246.074 977.257 245.895C977.535 245.716 977.868 245.627 978.257 245.627C978.636 245.627 978.957 245.708 979.219 245.872C979.481 246.035 979.679 246.266 979.814 246.565C979.952 246.86 980.021 247.212 980.021 247.619V247.884H977.136ZM977.14 247.398H979.328C979.328 247.167 979.289 246.959 979.211 246.775C979.133 246.588 979.014 246.441 978.853 246.335C978.695 246.226 978.495 246.171 978.253 246.171C978.002 246.171 977.793 246.232 977.627 246.354C977.463 246.474 977.34 246.628 977.257 246.818C977.177 247.004 977.138 247.198 977.14 247.398ZM982.613 245.627C982.901 245.627 983.16 245.682 983.391 245.794C983.622 245.903 983.81 246.059 983.956 246.261C984.103 246.463 984.196 246.702 984.232 246.977H983.594C983.57 246.837 983.516 246.709 983.43 246.592C983.347 246.475 983.237 246.382 983.099 246.312C982.962 246.242 982.801 246.206 982.617 246.206C982.271 246.206 981.991 246.331 981.776 246.58C981.56 246.829 981.453 247.211 981.453 247.724C981.453 248.189 981.551 248.561 981.749 248.842C981.948 249.119 982.242 249.258 982.628 249.258C982.813 249.258 982.972 249.223 983.107 249.153C983.245 249.08 983.355 248.986 983.438 248.869C983.521 248.749 983.574 248.622 983.597 248.487H984.224C984.19 248.757 984.1 248.991 983.952 249.188C983.804 249.385 983.614 249.538 983.383 249.647C983.155 249.754 982.898 249.807 982.613 249.807C982.252 249.807 981.932 249.728 981.651 249.569C981.374 249.411 981.156 249.178 980.997 248.869C980.839 248.56 980.76 248.181 980.76 247.732C980.76 247.312 980.831 246.945 980.974 246.631C981.119 246.314 981.33 246.068 981.605 245.891C981.882 245.715 982.218 245.627 982.613 245.627Z" fill="#9B9EAB"/>
</svg>
