<svg width="129" height="129" viewBox="0 0 129 129" fill="none" xmlns="http://www.w3.org/2000/svg">
<path d="M-0.000109359 64.5001C-0.000110013 47.9318 6.37568 31.9988 17.8055 20.0042C29.2353 8.00964 44.8426 0.873447 61.3917 0.0750149C77.9408 -0.723417 94.1625 4.87716 106.694 15.7157C119.225 26.5542 127.105 41.7994 128.7 58.2908L109.44 60.1536C108.324 48.6096 102.808 37.938 94.0358 30.351C85.2637 22.7641 73.9085 18.8437 62.3242 19.4026C50.7398 19.9615 39.8147 24.9568 31.8138 33.353C23.813 41.7492 19.3499 52.9023 19.3499 64.5001L-0.000109359 64.5001Z" fill="#3366FF"/>
<path d="M128.695 58.2389C129.794 69.5053 127.909 80.8625 123.228 91.1694C118.548 101.476 111.237 110.37 102.031 116.957C92.8246 123.543 82.0471 127.591 70.781 128.694C59.5149 129.796 48.1571 127.914 37.8488 123.237L45.8441 105.616C53.06 108.89 61.0104 110.207 68.8967 109.436C76.7829 108.664 84.3272 105.83 90.7716 101.22C97.2159 96.609 102.333 90.3835 105.61 83.1686C108.886 75.9538 110.206 68.0038 109.437 60.1173L128.695 58.2389Z" fill="#4FBEAB"/>
<path d="M38.369 123.47C26.9244 118.398 17.2028 110.106 10.3898 99.6046C3.57675 89.1031 -0.0332052 76.846 0.000119516 64.3281L19.3501 64.3796C19.3267 73.1421 21.8537 81.7221 26.6228 89.0732C31.3919 96.4242 38.197 102.229 46.2083 105.779L38.369 123.47Z" fill="#F3F5F8"/>
</svg>
