<svg width="16" height="17" viewBox="0 0 16 17" fill="none" xmlns="http://www.w3.org/2000/svg">
<path d="M7.74714 9.20254C8.36268 9.20254 8.88589 8.9871 9.31677 8.55622C9.74764 8.12534 9.96308 7.60213 9.96308 6.98659C9.96308 6.37105 9.74764 5.84784 9.31677 5.41697C8.88589 4.98609 8.36268 4.77065 7.74714 4.77065C7.1316 4.77065 6.60839 4.98609 6.17751 5.41697C5.74663 5.84784 5.53119 6.37105 5.53119 6.98659C5.53119 7.60213 5.74663 8.12534 6.17751 8.55622C6.60839 8.9871 7.1316 9.20254 7.74714 9.20254ZM1.83795 14.3731C1.4317 14.3731 1.08392 14.2284 0.794613 13.9391C0.505309 13.6498 0.360657 13.302 0.360657 12.8958V4.032C0.360657 3.62574 0.505309 3.27796 0.794613 2.98866C1.08392 2.69936 1.4317 2.5547 1.83795 2.5547H13.6563C14.0626 2.5547 14.4104 2.69936 14.6997 2.98866C14.989 3.27796 15.1336 3.62574 15.1336 4.032V12.8958C15.1336 13.302 14.989 13.6498 14.6997 13.9391C14.4104 14.2284 14.0626 14.3731 13.6563 14.3731H1.83795ZM3.13059 12.8958H12.3637C11.8097 12.2064 11.1388 11.6647 10.3509 11.2708C9.56298 10.8768 8.69507 10.6798 7.74714 10.6798C6.79921 10.6798 5.93129 10.8768 5.1434 11.2708C4.35551 11.6647 3.68457 12.2064 3.13059 12.8958ZM2.5766 16.589C2.36732 16.589 2.19189 16.5182 2.05031 16.3767C1.90874 16.2351 1.83795 16.0597 1.83795 15.8504C1.83795 15.6411 1.90874 15.4657 2.05031 15.3241C2.19189 15.1825 2.36732 15.1117 2.5766 15.1117H12.9177C13.127 15.1117 13.3024 15.1825 13.444 15.3241C13.5855 15.4657 13.6563 15.6411 13.6563 15.8504C13.6563 16.0597 13.5855 16.2351 13.444 16.3767C13.3024 16.5182 13.127 16.589 12.9177 16.589H2.5766ZM2.5766 1.81606C2.36732 1.81606 2.19189 1.74527 2.05031 1.6037C1.90874 1.46212 1.83795 1.28669 1.83795 1.07741C1.83795 0.868125 1.90874 0.692696 2.05031 0.551122C2.19189 0.409547 2.36732 0.33876 2.5766 0.33876H12.9177C13.127 0.33876 13.3024 0.409547 13.444 0.551122C13.5855 0.692696 13.6563 0.868125 13.6563 1.07741C13.6563 1.28669 13.5855 1.46212 13.444 1.6037C13.3024 1.74527 13.127 1.81606 12.9177 1.81606H2.5766Z" fill="#3366FF"/>
</svg>
