<svg width="16" height="15" viewBox="0 0 16 15" fill="none" xmlns="http://www.w3.org/2000/svg">
<path d="M13.287 13.8855C13.4963 13.8855 13.6717 13.8147 13.8133 13.6731C13.9549 13.5315 14.0256 13.3561 14.0256 13.1468C14.0256 12.9375 13.9549 12.7621 13.8133 12.6205C13.6717 12.4789 13.4963 12.4082 13.287 12.4082C13.0777 12.4082 12.9023 12.4789 12.7607 12.6205C12.6191 12.7621 12.5484 12.9375 12.5484 13.1468C12.5484 13.3561 12.6191 13.5315 12.7607 13.6731C12.9023 13.8147 13.0777 13.8855 13.287 13.8855ZM7.74714 14.9934C6.47913 14.9934 5.30037 14.6918 4.21086 14.0886C3.12135 13.4853 2.26268 12.7036 1.63482 11.7434L4.88488 8.49332L6.7869 10.1183C6.93463 10.2538 7.1039 10.3153 7.29472 10.303C7.48553 10.2907 7.64865 10.2168 7.78407 10.0814L10.7017 7.18222V7.60694C10.7017 7.81622 10.7725 7.99165 10.9141 8.13323C11.0557 8.2748 11.2311 8.34559 11.4404 8.34559C11.6497 8.34559 11.8251 8.2748 11.9667 8.13323C12.1082 7.99165 12.179 7.81622 12.179 7.60694V5.391C12.179 5.18171 12.1082 5.00628 11.9667 4.86471C11.8251 4.72313 11.6497 4.65235 11.4404 4.65235H9.22443C9.01515 4.65235 8.83972 4.72313 8.69815 4.86471C8.55657 5.00628 8.48579 5.18171 8.48579 5.391C8.48579 5.60028 8.55657 5.77571 8.69815 5.91728C8.83972 6.05886 9.01515 6.12964 9.22443 6.12964H9.64916L7.23008 8.54872L5.3096 6.94216C5.16187 6.81905 4.9926 6.76057 4.80178 6.76673C4.61096 6.77288 4.44784 6.84367 4.31242 6.97909L0.896177 10.3953C0.723825 9.98908 0.591484 9.5305 0.499153 9.01961C0.406822 8.50871 0.360657 8.03782 0.360657 7.60694C0.360657 6.58514 0.554552 5.6249 0.942342 4.72621C1.33013 3.82752 1.85642 3.04579 2.5212 2.381C3.18599 1.71622 3.96772 1.18993 4.86641 0.802144C5.7651 0.414354 6.72534 0.220459 7.74714 0.220459C8.76894 0.220459 9.72918 0.414354 10.6279 0.802144C11.5266 1.18993 12.3083 1.71622 12.9731 2.381C13.6379 3.04579 14.1641 3.82752 14.5519 4.72621C14.9397 5.6249 15.1336 6.58514 15.1336 7.60694V13.5161C15.1336 13.9224 14.989 14.2702 14.6997 14.5595C14.4104 14.8488 14.0626 14.9934 13.6563 14.9934H7.74714Z" fill="#3366FF"/>
</svg>
