<svg width="163" height="27" viewBox="0 0 163 27" fill="none" xmlns="http://www.w3.org/2000/svg">
<path d="M15.3518 5.80116L32.2043 0.51125C32.8108 0.320319 33.4959 0.634798 33.5015 1.11213L33.5689 5.39685L15.3518 11.0686V5.80116Z" fill="black"/>
<path d="M15.3518 13.3933L31.9179 8.19324C32.6592 7.95738 33.4959 8.34486 33.5015 8.92327L33.5633 12.989L15.3462 18.6608V13.3933H15.3518Z" fill="black"/>
<path d="M25.7014 21.2495L15.3462 18.0261V22.2828C15.3462 22.9005 15.8572 23.4564 16.6434 23.7035L25.7014 26.545V21.2495Z" fill="black"/>
<path d="M45.9233 19.0735H48.3099V14.8113H54.3579V12.6886H48.3099V10.1671H55.4249V7.92651H45.9233V19.0735Z" fill="black"/>
<path d="M66.9313 9.35313C66.4035 8.85334 65.7577 8.46024 65.022 8.19069C64.2864 7.91553 63.4609 7.78076 62.5792 7.78076C61.6976 7.78076 60.8664 7.92114 60.1308 8.19069C59.3952 8.46586 58.755 8.85334 58.2215 9.35313C57.6936 9.85292 57.2781 10.4594 56.9861 11.1558C56.694 11.8521 56.548 12.627 56.548 13.4638C56.548 14.3005 56.694 15.0867 56.9861 15.7887C57.2781 16.4906 57.6936 17.1083 58.2215 17.6137C58.7494 18.1191 59.3895 18.5178 60.1308 18.7986C60.8664 19.0794 61.6919 19.2198 62.5848 19.2198C63.4777 19.2198 64.2976 19.0794 65.0332 18.7986C65.7689 18.5178 66.4147 18.1191 66.9426 17.6137C67.4704 17.1083 67.886 16.4906 68.178 15.7887C68.47 15.0867 68.616 14.3061 68.616 13.4638C68.616 12.6214 68.47 11.8521 68.178 11.1558C67.886 10.4594 67.4704 9.85292 66.9426 9.35313H66.9369H66.9313ZM62.5736 16.9567C62.0457 16.9567 61.5572 16.8725 61.1135 16.7096C60.6699 16.5468 60.2824 16.3109 59.9567 16.0077C59.6366 15.7044 59.3783 15.3394 59.1986 14.9126C59.0189 14.4858 58.9234 14.0029 58.9234 13.4638C58.9234 12.9247 59.0133 12.4473 59.1986 12.0206C59.3783 11.5994 59.6366 11.24 59.9567 10.948C60.2824 10.656 60.6699 10.4257 61.1135 10.2741C61.5572 10.1169 62.0513 10.0383 62.5792 10.0383C63.1071 10.0383 63.5956 10.1169 64.0449 10.2741C64.4885 10.4257 64.876 10.656 65.1961 10.948C65.5162 11.24 65.7689 11.5994 65.9542 12.0206C66.1395 12.4417 66.2294 12.9247 66.2294 13.4638C66.2294 14.0029 66.1395 14.4858 65.9542 14.9126C65.7689 15.3394 65.5162 15.71 65.1905 16.0077C64.8704 16.3109 64.4829 16.5468 64.0393 16.7096C63.5956 16.8725 63.1015 16.9567 62.5792 16.9567H62.5736Z" fill="black"/>
<path d="M79.4542 14.9797C79.7574 14.7327 80.0101 14.4462 80.2067 14.1262C80.4088 13.8117 80.5548 13.4579 80.6503 13.0817C80.7458 12.7054 80.7907 12.3067 80.7907 11.8968C80.7907 11.2847 80.6952 10.7231 80.4987 10.2345C80.3021 9.74035 80.0045 9.31918 79.6058 8.97101C79.2127 8.62846 78.7073 8.37013 78.112 8.19043C77.5224 8.01635 76.8204 7.92651 76.0174 7.92651H70.632V19.0735H73.0187V15.9905H76.0118L77.9492 19.0735H80.8637L78.5725 15.5244C78.9038 15.3728 79.2015 15.1931 79.4598 14.9854L79.4542 14.9797ZM78.2973 11.8911C78.2973 12.1775 78.2524 12.4415 78.1626 12.6717C78.0727 12.902 77.9379 13.0929 77.7582 13.2501C77.5729 13.413 77.3427 13.5365 77.0675 13.6264C76.7867 13.7162 76.4498 13.7668 76.0736 13.7668H73.0187V10.1447H76.0736C76.8317 10.1447 77.3988 10.3019 77.7639 10.6052C78.1233 10.9084 78.2973 11.324 78.2973 11.8855V11.8911Z" fill="black"/>
<path d="M95.9641 7.92676L93.1114 15.0586L92.7464 16.2996L92.2691 15.0698L91.247 12.526L93.1619 7.92114H90.6855L90.079 9.73498L89.4276 7.92114H86.9511L88.866 12.526L87.8552 15.0305L87.4733 16.3053L86.9791 15.0193L84.1489 7.92676H81.5432L86.221 19.0738H88.4785L89.45 16.8275L90.0565 15.1316L90.663 16.8331L91.6176 19.0738H93.8807L98.553 7.92676H95.9473H95.9641Z" fill="black"/>
<path d="M120.909 14.9797C121.212 14.7327 121.465 14.4462 121.661 14.1262C121.863 13.8117 122.009 13.4579 122.105 13.0817C122.2 12.7054 122.245 12.3067 122.245 11.8968C122.245 11.2847 122.15 10.7231 121.953 10.2345C121.757 9.74035 121.459 9.31918 121.06 8.97101C120.667 8.62846 120.162 8.37013 119.567 8.19043C118.977 8.01635 118.275 7.92651 117.472 7.92651H112.087V19.0735H114.473V15.9905H117.466L119.404 19.0735H122.318L120.027 15.5244C120.358 15.3728 120.656 15.1931 120.914 14.9854L120.909 14.9797ZM119.752 11.8911C119.752 12.1775 119.707 12.4415 119.617 12.6717C119.527 12.902 119.393 13.0929 119.213 13.2501C119.028 13.413 118.797 13.5365 118.522 13.6264C118.241 13.7162 117.904 13.7668 117.528 13.7668H114.473V10.1447H117.528C118.286 10.1447 118.853 10.3019 119.218 10.6052C119.578 10.9084 119.752 11.324 119.752 11.8855V11.8911Z" fill="black"/>
<path d="M133.331 9.40368C132.786 8.92635 132.089 8.5557 131.258 8.303C130.438 8.0503 129.456 7.92114 128.344 7.92114H124.424V19.0682H128.361C129.473 19.0738 130.455 18.9334 131.275 18.6526C132.101 18.3718 132.797 17.9787 133.342 17.479C133.886 16.9792 134.302 16.3727 134.566 15.6876C134.83 15.0025 134.965 14.25 134.965 13.4469C134.965 12.6046 134.83 11.8296 134.56 11.1501C134.291 10.465 133.875 9.87538 133.325 9.39806L133.331 9.40368ZM128.86 16.8556H126.811V10.1506H128.86C129.467 10.1506 130 10.2292 130.455 10.3864C130.899 10.538 131.281 10.7626 131.578 11.0434C131.87 11.3242 132.101 11.6724 132.247 12.0711C132.398 12.4754 132.471 12.9471 132.471 13.4526C132.471 13.958 132.393 14.4465 132.247 14.8677C132.101 15.2832 131.87 15.6426 131.578 15.9347C131.281 16.2267 130.905 16.4569 130.455 16.6197C130 16.7826 129.467 16.8612 128.866 16.8612L128.86 16.8556Z" fill="black"/>
<path d="M139.423 7.78076H137.026V18.9278H139.423V7.78076Z" fill="black"/>
<path d="M150.273 7.78076V11.2175L144.045 7.78076H141.771V18.9278H144.152V10.5436L150.267 13.8962V18.9278H152.654V7.78076H150.267H150.273Z" fill="black"/>
<path d="M103.349 7.92651L98.3788 19.0735H100.906L104.573 10.7343L108.352 19.0735H110.874L105.752 7.92651H103.349Z" fill="black"/>
</svg>
