<svg width="137" height="34" viewBox="0 0 137 34" fill="none" xmlns="http://www.w3.org/2000/svg">
<path d="M0.485413 23.6974H3.52721V18.2652H11.2355V15.5597H3.52721V12.3462H12.5953V9.49048H0.485413V23.6974Z" fill="white"/>
<path d="M27.2604 11.3084C26.5876 10.6715 25.7645 10.1704 24.827 9.8269C23.8894 9.4762 22.8373 9.30444 21.7136 9.30444C20.5899 9.30444 19.5306 9.48336 18.5931 9.8269C17.6555 10.1776 16.8395 10.6715 16.1596 11.3084C15.4868 11.9454 14.9572 12.7184 14.585 13.6059C14.2129 14.4934 14.0268 15.4811 14.0268 16.5475C14.0268 17.6139 14.2129 18.6159 14.585 19.5106C14.9572 20.4052 15.4868 21.1925 16.1596 21.8367C16.8324 22.4808 17.6483 22.989 18.5931 23.3468C19.5306 23.7047 20.5828 23.8836 21.7207 23.8836C22.8587 23.8836 23.9037 23.7047 24.8413 23.3468C25.7789 22.989 26.6019 22.4808 27.2747 21.8367C27.9475 21.1925 28.4771 20.4052 28.8493 19.5106C29.2215 18.6159 29.4075 17.6211 29.4075 16.5475C29.4075 15.4739 29.2215 14.4934 28.8493 13.6059C28.4771 12.7184 27.9475 11.9454 27.2747 11.3084H27.2675H27.2604ZM21.7064 20.9993C21.0337 20.9993 20.411 20.8919 19.8456 20.6844C19.2801 20.4768 18.7863 20.1762 18.3712 19.7897C17.9632 19.4032 17.634 18.938 17.405 18.3941C17.1759 17.8501 17.0543 17.2346 17.0543 16.5475C17.0543 15.8604 17.1688 15.252 17.405 14.7081C17.634 14.1713 17.9632 13.7133 18.3712 13.3411C18.7863 12.9689 19.2801 12.6755 19.8456 12.4822C20.411 12.2818 21.0408 12.1816 21.7136 12.1816C22.3864 12.1816 23.009 12.2818 23.5816 12.4822C24.147 12.6755 24.6409 12.9689 25.0488 13.3411C25.4568 13.7133 25.7789 14.1713 26.015 14.7081C26.2512 15.2449 26.3657 15.8604 26.3657 16.5475C26.3657 17.2346 26.2512 17.8501 26.015 18.3941C25.7789 18.938 25.4568 19.4104 25.0417 19.7897C24.6337 20.1762 24.1399 20.4768 23.5744 20.6844C23.009 20.8919 22.3792 20.9993 21.7136 20.9993H21.7064Z" fill="white"/>
<path d="M43.2209 18.4799C43.6074 18.165 43.9294 17.7999 44.1799 17.392C44.4376 16.9912 44.6237 16.5403 44.7454 16.0608C44.867 15.5812 44.9243 15.0731 44.9243 14.5506C44.9243 13.7705 44.8026 13.0547 44.5521 12.4321C44.3016 11.8022 43.9223 11.2654 43.4141 10.8217C42.9131 10.3851 42.269 10.0559 41.5103 9.82684C40.7588 9.60497 39.8642 9.49048 38.8407 9.49048H31.977V23.6974H35.0188V19.7682H38.8335L41.3028 23.6974H45.0173L42.0972 19.1741C42.5195 18.9809 42.8988 18.7519 43.228 18.487L43.2209 18.4799ZM41.7465 14.5434C41.7465 14.9085 41.6892 15.2449 41.5747 15.5383C41.4602 15.8317 41.2884 16.0751 41.0594 16.2755C40.8232 16.483 40.5298 16.6405 40.1791 16.755C39.8212 16.8695 39.3918 16.934 38.9123 16.934H35.0188V12.3176H38.9123C39.8785 12.3176 40.6014 12.518 41.0666 12.9045C41.5246 13.291 41.7465 13.8206 41.7465 14.5363V14.5434Z" fill="white"/>
<path d="M64.263 9.48324L60.6271 18.5729L60.1619 20.1546L59.5535 18.5872L58.2509 15.345L60.6915 9.47607H57.5352L56.7622 11.7879L55.932 9.47607H52.7757L55.2163 15.345L53.928 18.5371L53.4413 20.1617L52.8115 18.5227L49.2043 9.48324H45.8833L51.8453 23.6902H54.7225L55.9606 20.8274L56.7336 18.6659L57.5066 20.8345L58.7233 23.6902H61.6077L67.5624 9.48324H64.2415H64.263Z" fill="white"/>
<path d="M96.0551 18.4799C96.4416 18.165 96.7637 17.7999 97.0142 17.392C97.2718 16.9912 97.4579 16.5403 97.5796 16.0608C97.7013 15.5812 97.7585 15.0731 97.7585 14.5506C97.7585 13.7705 97.6368 13.0547 97.3863 12.4321C97.1358 11.8022 96.7565 11.2654 96.2484 10.8217C95.7473 10.3851 95.1032 10.0559 94.3446 9.82684C93.593 9.60497 92.6984 9.49048 91.6749 9.49048H84.8112V23.6974H87.853V19.7682H91.6678L94.137 23.6974H97.8516L94.9314 19.1741C95.3537 18.9809 95.733 18.7519 96.0623 18.487L96.0551 18.4799ZM94.5807 14.5434C94.5807 14.9085 94.5235 15.2449 94.409 15.5383C94.2944 15.8317 94.1227 16.0751 93.8936 16.2755C93.6575 16.483 93.364 16.6405 93.0133 16.755C92.6555 16.8695 92.226 16.934 91.7465 16.934H87.853V12.3176H91.7465C92.7127 12.3176 93.4356 12.518 93.9008 12.9045C94.3589 13.291 94.5807 13.8206 94.5807 14.5363V14.5434Z" fill="white"/>
<path d="M111.887 11.3727C111.193 10.7643 110.305 10.2919 109.246 9.96984C108.201 9.64776 106.948 9.48315 105.531 9.48315H100.536V23.6902H105.553C106.97 23.6973 108.222 23.5184 109.267 23.1605C110.319 22.8026 111.207 22.3017 111.901 21.6647C112.595 21.0277 113.125 20.2547 113.461 19.3815C113.798 18.5084 113.97 17.5493 113.97 16.5258C113.97 15.4523 113.798 14.4645 113.454 13.5985C113.111 12.7254 112.581 11.9739 111.88 11.3655L111.887 11.3727ZM106.19 20.8702H103.577V12.3246H106.19C106.963 12.3246 107.643 12.4248 108.222 12.6252C108.788 12.8184 109.274 13.1047 109.654 13.4625C110.026 13.8204 110.319 14.2642 110.505 14.7723C110.699 15.2876 110.792 15.8888 110.792 16.533C110.792 17.1771 110.692 17.7998 110.505 18.3366C110.319 18.8662 110.026 19.3243 109.654 19.6965C109.274 20.0686 108.795 20.362 108.222 20.5696C107.643 20.7772 106.963 20.8774 106.197 20.8774L106.19 20.8702Z" fill="white"/>
<path d="M119.652 9.30444H116.596V23.5115H119.652V9.30444Z" fill="white"/>
<path d="M133.48 9.30444V13.6846L125.543 9.30444H122.644V23.5115H125.679V12.8258L133.473 17.0986V23.5115H136.515V9.30444H133.473H133.48Z" fill="white"/>
<path d="M73.6746 9.48315L67.3405 23.6902H70.5613L75.2349 13.0617L80.0517 23.6902H83.2653L76.7379 9.48315H73.6746Z" fill="white"/>
</svg>
